<?xml version="1.0" encoding="UTF-8"?>
<svg id="Ebene_1" xmlns="http://www.w3.org/2000/svg" viewBox="0 0 2466.14 595.28">
  <defs>
    <style>
      .cls-1 {
        fill: #a5f1f4;
      }

      .cls-2 {
        fill: #ce9544;
      }

      .cls-2, .cls-3, .cls-4, .cls-5, .cls-6, .cls-7, .cls-8 {
        stroke: #12222e;
        stroke-miterlimit: 10;
      }

      .cls-2, .cls-3, .cls-4, .cls-5, .cls-7, .cls-8 {
        stroke-width: 12px;
      }

      .cls-9, .cls-8 {
        fill: #49bdc1;
      }

      .cls-3, .cls-6, .cls-10 {
        fill: #12222e;
      }

      .cls-11, .cls-4 {
        fill: #fdf8ed;
      }

      .cls-12, .cls-7 {
        fill: #1c646b;
      }

      .cls-5 {
        fill: none;
      }
    </style>
  </defs>
  <g>
    <g>
      <rect class="cls-6" x="213.35" y="361.8" width="26.57" height="55.44" transform="translate(-209.05 274.34) rotate(-45)"/>
      <circle class="cls-3" cx="373.38" cy="242.78" r="194.24"/>
      <circle class="cls-3" cx="373.38" cy="242.78" r="166.34"/>
      <circle class="cls-3" cx="373.38" cy="242.78" r="34.17"/>
      <circle class="cls-3" cx="373.38" cy="149.14" r="21.58"/>
      <path class="cls-6" d="M240.53,203.33c10.32-64.56,78.69-111.85,142.76-98.76-4.89.41-9.76.8-14.59,1.41-14.25,1.88-28.23,5.49-41.52,10.82-39.42,15.96-69.67,47.52-86.65,86.52h0Z"/>
      <line class="cls-3" x1="373.38" y1="170.72" x2="373.38" y2="208.61"/>
      <circle class="cls-3" cx="439.59" cy="176.56" r="21.58"/>
      <line class="cls-3" x1="424.34" y1="191.82" x2="397.54" y2="218.61"/>
      <line class="cls-3" x1="528.86" y1="242.78" x2="407.55" y2="242.78"/>
      <circle class="cls-3" cx="639.99" cy="230.78" r="21.58"/>
      <line class="cls-3" x1="618.41" y1="230.78" x2="566.37" y2="230.78"/>
      <circle class="cls-3" cx="439.59" cy="308.99" r="21.58"/>
      <line class="cls-3" x1="424.34" y1="293.73" x2="397.54" y2="266.94"/>
      <circle class="cls-3" cx="373.38" cy="336.42" r="21.58"/>
      <line class="cls-3" x1="373.38" y1="314.84" x2="373.38" y2="276.95"/>
      <line class="cls-3" x1="639.59" y1="311.46" x2="442.49" y2="508.57"/>
      <circle class="cls-3" cx="595.02" cy="488.46" r="21.58"/>
      <line class="cls-3" x1="579.76" y1="473.2" x2="552.97" y2="446.41"/>
      <circle class="cls-3" cx="528.81" cy="515.89" r="21.58"/>
      <line class="cls-3" x1="528.81" y1="494.31" x2="528.81" y2="456.42"/>
      <circle class="cls-3" cx="639.99" cy="311.82" r="21.58"/>
      <line class="cls-3" x1="639.99" y1="290.24" x2="639.99" y2="252.35"/>
      <circle class="cls-3" cx="307.17" cy="308.99" r="21.58"/>
      <line class="cls-3" x1="322.43" y1="293.73" x2="349.22" y2="266.94"/>
      <circle class="cls-3" cx="427.59" cy="515.89" r="21.58"/>
      <circle class="cls-3" cx="279.74" cy="242.78" r="21.58"/>
      <line class="cls-3" x1="301.32" y1="242.78" x2="339.21" y2="242.78"/>
      <circle class="cls-3" cx="344.43" cy="515.89" r="21.58"/>
      <line class="cls-3" x1="366.01" y1="515.89" x2="403.9" y2="515.89"/>
      <circle class="cls-3" cx="307.17" cy="176.56" r="21.58"/>
      <line class="cls-3" x1="322.43" y1="191.82" x2="349.22" y2="218.61"/>
      <circle class="cls-3" cx="528.81" cy="422.25" r="34.17"/>
      <rect class="cls-6" x="226.92" y="394.55" width="26.57" height="17.08" transform="translate(-214.67 287.91) rotate(-45)"/>
      <rect class="cls-3" x="213.35" y="361.8" width="26.57" height="55.44" transform="translate(-209.05 274.34) rotate(-45)"/>
      <path class="cls-6" d="M86.1,530.06h0c-15.09-15.09-15.09-39.56,0-54.66l98.23-98.23c3.32-3.32,8.71-3.32,12.03,0l42.63,42.63c3.32,3.32,3.32,8.71,0,12.03l-98.23,98.23c-15.09,15.09-39.56,15.09-54.66,0Z"/>
      <path class="cls-6" d="M92.11,536.07h0c-11.77-11.77-11.77-30.87,0-42.64l105.56-105.56c2.59-2.59,6.79-2.59,9.38,0l33.26,33.26c2.59,2.59,2.59,6.79,0,9.38l-105.56,105.56c-11.77,11.77-30.87,11.77-42.64,0Z"/>
      <polygon class="cls-6" points="86.3 474.29 184.53 376.06 86.3 474.29 86.3 474.29"/>
      <path class="cls-6" d="M122.93,522.94l105.56-105.56c2.59-2.59,2.59-6.79,0-9.38l-31.94-31.94h0l42.63,42.63c3.32,3.32,3.32,8.71,0,12.03l-98.23,98.23c-15.09,15.09-39.56,15.09-54.66,0h0c-1.08-1.08-2.07-2.21-3-3.38,11.82,9.06,28.81,8.19,39.63-2.63Z"/>
      <path class="cls-3" d="M86.1,530.06h0c-15.09-15.09-15.09-39.56,0-54.66l98.23-98.23c3.32-3.32,8.71-3.32,12.03,0l42.63,42.63c3.32,3.32,3.32,8.71,0,12.03l-98.23,98.23c-15.09,15.09-39.56,15.09-54.66,0Z"/>
      <path class="cls-6" d="M293.87,182.18c-4.29-10.75,8.16-23.23,18.92-18.91-4.56,1.91-8.27,3.98-11.61,7.31-3.34,3.33-5.4,7.04-7.31,11.61h0Z"/>
      <path class="cls-6" d="M265.67,247.83c-4.29-10.75,8.16-23.23,18.92-18.91-4.56,1.91-8.27,3.98-11.61,7.31-3.34,3.33-5.4,7.04-7.31,11.61h0Z"/>
      <path class="cls-6" d="M293.87,314.81c-4.29-10.75,8.16-23.23,18.92-18.91-4.56,1.91-8.27,3.98-11.61,7.31-3.34,3.33-5.4,7.04-7.31,11.61h0Z"/>
      <path class="cls-6" d="M359.52,341.03c-4.29-10.75,8.16-23.23,18.92-18.91-4.56,1.91-8.27,3.98-11.61,7.31-3.34,3.33-5.4,7.04-7.31,11.61h0Z"/>
      <path class="cls-6" d="M330.34,521.59c-4.29-10.75,8.16-23.23,18.92-18.91-4.56,1.91-8.27,3.98-11.61,7.31-3.34,3.33-5.4,7.04-7.31,11.61h0Z"/>
      <path class="cls-6" d="M414.5,521.59c-4.29-10.75,8.16-23.23,18.92-18.91-4.56,1.91-8.27,3.98-11.61,7.31-3.34,3.33-5.4,7.04-7.31,11.61h0Z"/>
      <path class="cls-6" d="M514.69,521.59c-4.29-10.75,8.16-23.23,18.92-18.91-4.56,1.91-8.27,3.98-11.61,7.31-3.34,3.33-5.4,7.04-7.31,11.61h0Z"/>
      <path class="cls-6" d="M579.76,494.28c-4.29-10.75,8.16-23.23,18.92-18.91-4.56,1.91-8.27,3.98-11.61,7.31-3.34,3.33-5.4,7.04-7.31,11.61h0Z"/>
      <path class="cls-6" d="M426.5,314.81c-4.29-10.75,8.16-23.23,18.92-18.91-4.56,1.91-8.27,3.98-11.61,7.31-3.34,3.33-5.4,7.04-7.31,11.61h0Z"/>
      <path class="cls-6" d="M626.3,235.83c-4.29-10.75,8.16-23.23,18.92-18.91-4.56,1.91-8.27,3.98-11.61,7.31-3.34,3.33-5.4,7.04-7.31,11.61h0Z"/>
      <path class="cls-6" d="M626.3,316.9c-4.29-10.75,8.16-23.23,18.92-18.91-4.56,1.91-8.27,3.98-11.61,7.31-3.34,3.33-5.4,7.04-7.31,11.61h0Z"/>
      <path class="cls-6" d="M359.52,153.99c-4.29-10.75,8.16-23.23,18.92-18.91-4.56,1.91-8.27,3.98-11.61,7.31-3.34,3.33-5.4,7.04-7.31,11.61h0Z"/>
      <path class="cls-6" d="M347.79,246.83c-4.28-17.23,13.41-34.95,30.64-30.64-4,1.05-7.65,2.36-10.97,4.15-10.33,5.41-16.95,15.17-19.67,26.49h0Z"/>
      <path class="cls-6" d="M502.96,426.34c-4.28-17.23,13.41-34.95,30.64-30.64-4,1.05-7.65,2.36-10.97,4.15-10.33,5.41-16.95,15.17-19.67,26.49h0Z"/>
      <path class="cls-6" d="M426.5,181.26c-4.29-10.75,8.16-23.23,18.92-18.91-4.56,1.91-8.27,3.98-11.61,7.31-3.34,3.33-5.4,7.04-7.31,11.61h0Z"/>
    </g>
    <g>
      <rect class="cls-11" x="193.51" y="341.96" width="26.57" height="55.44" transform="translate(-200.83 254.5) rotate(-45)"/>
      <circle class="cls-4" cx="353.54" cy="222.93" r="194.24"/>
      <circle class="cls-8" cx="353.54" cy="222.93" r="166.34"/>
      <circle class="cls-8" cx="353.54" cy="222.93" r="34.17"/>
      <circle class="cls-8" cx="353.54" cy="129.29" r="21.58"/>
      <path class="cls-11" d="M220.69,183.48c10.32-64.56,78.69-111.85,142.76-98.76-4.89.41-9.76.8-14.59,1.41-14.25,1.88-28.23,5.49-41.52,10.82-39.42,15.96-69.67,47.52-86.65,86.52h0Z"/>
      <line class="cls-8" x1="353.54" y1="150.87" x2="353.54" y2="188.76"/>
      <circle class="cls-8" cx="419.75" cy="156.72" r="21.58"/>
      <line class="cls-8" x1="404.49" y1="171.98" x2="377.7" y2="198.77"/>
      <line class="cls-8" x1="509.02" y1="222.93" x2="387.71" y2="222.93"/>
      <circle class="cls-7" cx="632.15" cy="222.93" r="21.58"/>
      <line class="cls-8" x1="610.57" y1="222.93" x2="558.53" y2="222.93"/>
      <circle class="cls-7" cx="419.75" cy="289.15" r="21.58"/>
      <line class="cls-8" x1="404.49" y1="273.89" x2="377.7" y2="247.1"/>
      <circle class="cls-8" cx="353.54" cy="316.57" r="21.58"/>
      <line class="cls-8" x1="353.54" y1="295" x2="353.54" y2="257.1"/>
      <line class="cls-8" x1="631.75" y1="303.62" x2="434.65" y2="500.73"/>
      <circle class="cls-2" cx="587.18" cy="480.62" r="21.58"/>
      <line class="cls-8" x1="571.92" y1="465.36" x2="545.13" y2="438.57"/>
      <circle class="cls-2" cx="520.97" cy="508.04" r="21.58"/>
      <line class="cls-8" x1="520.97" y1="486.47" x2="520.97" y2="448.58"/>
      <circle class="cls-7" cx="632.15" cy="303.98" r="21.58"/>
      <line class="cls-8" x1="632.15" y1="282.4" x2="632.15" y2="244.51"/>
      <circle class="cls-8" cx="287.33" cy="289.15" r="21.58"/>
      <line class="cls-8" x1="302.58" y1="273.89" x2="329.38" y2="247.1"/>
      <circle class="cls-2" cx="419.75" cy="508.04" r="21.58"/>
      <circle class="cls-2" cx="259.9" cy="222.93" r="21.58"/>
      <line class="cls-8" x1="281.48" y1="222.93" x2="319.37" y2="222.93"/>
      <circle class="cls-2" cx="336.59" cy="508.04" r="21.58"/>
      <line class="cls-8" x1="358.17" y1="508.04" x2="396.06" y2="508.04"/>
      <circle class="cls-8" cx="287.33" cy="156.72" r="21.58"/>
      <line class="cls-8" x1="302.58" y1="171.98" x2="329.38" y2="198.77"/>
      <circle class="cls-2" cx="520.97" cy="414.4" r="34.17"/>
      <rect class="cls-12" x="207.07" y="374.7" width="26.57" height="17.08" transform="translate(-206.45 268.07) rotate(-45)"/>
      <rect class="cls-5" x="193.51" y="341.96" width="26.57" height="55.44" transform="translate(-200.83 254.5) rotate(-45)"/>
      <path class="cls-11" d="M66.25,510.22h0c-15.09-15.09-15.09-39.56,0-54.66l98.23-98.23c3.32-3.32,8.71-3.32,12.03,0l42.63,42.63c3.32,3.32,3.32,8.71,0,12.03l-98.23,98.23c-15.09,15.09-39.56,15.09-54.66,0Z"/>
      <path class="cls-9" d="M72.26,516.22h0c-11.77-11.77-11.77-30.87,0-42.64l105.56-105.56c2.59-2.59,6.79-2.59,9.38,0l33.26,33.26c2.59,2.59,2.59,6.79,0,9.38l-105.56,105.56c-11.77,11.77-30.87,11.77-42.64,0Z"/>
      <g>
        <polygon class="cls-12" points="66.46 454.44 164.69 356.21 66.46 454.45 66.46 454.44"/>
        <path class="cls-12" d="M103.09,503.09l105.56-105.56c2.59-2.59,2.59-6.79,0-9.38l-31.94-31.94h0l42.63,42.63c3.32,3.32,3.32,8.71,0,12.03l-98.23,98.23c-15.09,15.09-39.56,15.09-54.66,0h0c-1.08-1.08-2.07-2.21-3-3.38,11.82,9.06,28.81,8.19,39.63-2.63Z"/>
      </g>
      <path class="cls-5" d="M66.25,510.22h0c-15.09-15.09-15.09-39.56,0-54.66l98.23-98.23c3.32-3.32,8.71-3.32,12.03,0l42.63,42.63c3.32,3.32,3.32,8.71,0,12.03l-98.23,98.23c-15.09,15.09-39.56,15.09-54.66,0Z"/>
      <path class="cls-11" d="M274.03,162.34c-4.29-10.75,8.16-23.23,18.92-18.91-4.56,1.91-8.27,3.98-11.61,7.31-3.34,3.33-5.4,7.04-7.31,11.61h0Z"/>
      <path class="cls-11" d="M245.83,227.99c-4.29-10.75,8.16-23.23,18.92-18.91-4.56,1.91-8.27,3.98-11.61,7.31-3.34,3.33-5.4,7.04-7.31,11.61h0Z"/>
      <path class="cls-11" d="M274.03,294.96c-4.29-10.75,8.16-23.23,18.92-18.91-4.56,1.91-8.27,3.98-11.61,7.31-3.34,3.33-5.4,7.04-7.31,11.61h0Z"/>
      <path class="cls-11" d="M339.68,321.18c-4.29-10.75,8.16-23.23,18.92-18.91-4.56,1.91-8.27,3.98-11.61,7.31-3.34,3.33-5.4,7.04-7.31,11.61h0Z"/>
      <path class="cls-11" d="M322.5,513.75c-4.29-10.75,8.16-23.23,18.92-18.91-4.56,1.91-8.27,3.98-11.61,7.31-3.34,3.33-5.4,7.04-7.31,11.61h0Z"/>
      <path class="cls-11" d="M406.65,513.75c-4.29-10.75,8.16-23.23,18.92-18.91-4.56,1.91-8.27,3.98-11.61,7.31-3.34,3.33-5.4,7.04-7.31,11.61h0Z"/>
      <path class="cls-11" d="M506.85,513.75c-4.29-10.75,8.16-23.23,18.92-18.91-4.56,1.91-8.27,3.98-11.61,7.31-3.34,3.33-5.4,7.04-7.31,11.61h0Z"/>
      <path class="cls-11" d="M571.92,486.44c-4.29-10.75,8.16-23.23,18.92-18.91-4.56,1.91-8.27,3.98-11.61,7.31-3.34,3.33-5.4,7.04-7.31,11.61h0Z"/>
      <path class="cls-1" d="M406.65,294.96c-4.29-10.75,8.16-23.23,18.92-18.91-4.56,1.91-8.27,3.98-11.61,7.31-3.34,3.33-5.4,7.04-7.31,11.61h0Z"/>
      <path class="cls-1" d="M618.45,227.99c-4.29-10.75,8.16-23.23,18.92-18.91-4.56,1.91-8.27,3.98-11.61,7.31-3.34,3.33-5.4,7.04-7.31,11.61h0Z"/>
      <path class="cls-1" d="M618.45,309.06c-4.29-10.75,8.16-23.23,18.92-18.91-4.56,1.91-8.27,3.98-11.61,7.31-3.34,3.33-5.4,7.04-7.31,11.61h0Z"/>
      <path class="cls-11" d="M339.68,134.14c-4.29-10.75,8.16-23.23,18.92-18.91-4.56,1.91-8.27,3.98-11.61,7.31-3.34,3.33-5.4,7.04-7.31,11.61h0Z"/>
      <path class="cls-11" d="M327.95,226.99c-4.28-17.23,13.41-34.95,30.64-30.64-4,1.05-7.65,2.36-10.97,4.15-10.33,5.41-16.95,15.17-19.67,26.49h0Z"/>
      <path class="cls-11" d="M495.12,418.5c-4.28-17.23,13.41-34.95,30.64-30.64-4,1.05-7.65,2.36-10.97,4.15-10.33,5.41-16.95,15.17-19.67,26.49h0Z"/>
      <path class="cls-11" d="M406.65,161.42c-4.29-10.75,8.16-23.23,18.92-18.91-4.56,1.91-8.27,3.98-11.61,7.31-3.34,3.33-5.4,7.04-7.31,11.61h0Z"/>
    </g>
  </g>
  <g>
    <path class="cls-10" d="M935.99,228.85c-.12-.12-.24-.25-.37-.37-.12-.12-.24-.25-.37-.37-.12-.12-.24-.25-.37-.37-.12-.12-.24-.25-.37-.37-.12-.12-.24-.25-.37-.37-.12-.12-.24-.25-.37-.37-.12-.12-.24-.25-.37-.37-.12-.12-.24-.25-.37-.37-.12-.12-.24-.25-.37-.37-.12-.12-.24-.25-.37-.37-.12-.12-.24-.25-.37-.37-.12-.12-.24-.25-.37-.37-.12-.12-.24-.25-.37-.37-.12-.12-.24-.25-.37-.37-.12-.12-.24-.25-.37-.37-.12-.12-.24-.25-.37-.37-.12-.12-.24-.25-.37-.37-.12-.12-.24-.25-.37-.37-.12-.12-.24-.25-.37-.37-.12-.12-.24-.25-.37-.37-.12-.12-.24-.25-.37-.37-.12-.12-.24-.25-.37-.37-.12-.12-.24-.25-.37-.37-.12-.12-.24-.25-.37-.37-.12-.12-.24-.25-.37-.37-.12-.12-.24-.25-.37-.37-.12-.12-.24-.25-.37-.37-.12-.12-.24-.25-.37-.37-.12-.12-.24-.25-.37-.37-.12-.12-.24-.25-.37-.37-.12-.12-.24-.25-.37-.37-.12-.12-.24-.25-.37-.37-.12-.12-.24-.25-.37-.37-.12-.12-.24-.25-.37-.37-.12-.12-.24-.25-.37-.37-.12-.12-.24-.25-.37-.37-.12-.12-.24-.25-.37-.37-.12-.12-.24-.25-.37-.37-.12-.12-.24-.25-.37-.37-.12-.12-.24-.25-.37-.37-.12-.12-.24-.25-.37-.37-.12-.12-.24-.25-.37-.37-.12-.12-.24-.25-.37-.37-.12-.12-.24-.25-.37-.37-.12-.12-.24-.25-.37-.37-.12-.12-.24-.25-.37-.37-.12-.12-.24-.25-.37-.37-.12-.12-.24-.25-.37-.37-.12-.12-.24-.25-.37-.37-.12-.12-.24-.25-.37-.37-.12-.12-.24-.25-.37-.37-.12-.12-.24-.25-.37-.37-.12-.12-.24-.25-.37-.37-.12-.12-.24-.25-.37-.37-.12-.12-.24-.25-.37-.37-.12-.12-.24-.25-.37-.37-.12-.12-.24-.25-.37-.37-.12-.12-.24-.25-.37-.37-.12-.12-.24-.25-.37-.37-.12-.12-.24-.25-.37-.37-.94-.93-1.91-1.84-2.92-2.72-14.71-12.8-36.72-19.21-66.03-19.21h-80.32v232.07h.37v.37h.37v.37h.37v.37h.37v.37h.37v.37h.37v.37h.37v.37h.37v.37h.37v.37h.37v.37h.37v.37h.37v.37h.37v.37h.37v.37h.37v.37h.37v.37h.37v.37h.37v.37h.37v.37h.37v.37h.37v.37h.37v.37h.37v.37h.37v.37h.37v.37h.37v.37h.37v.37h.37v.37h.37v.37h.37v.37h.37v.37h.37v.37h.37v.37h.37v.37h.37v.37h.37v.37h.37v.37h.37v.37h.37v.37h.37v.37h.37v.37h.37v.37h.37v.37h.37v.37h.37v.37h.37v.37h.37v.37h.37v.37h.37v.37h.37v.37h.37v.37h.37v.37h.37v.37h.37v.37h.37v.37h.37v.37h.37v.37h.37v.37h.37v.37h.37v.37h.37v.37h62.7v-76.99h17.62c28.15,0,49.87-7.06,65.16-21.19,15.29-14.13,22.94-34.15,22.94-60.08,0-22.19-6.51-39.6-19.51-52.25ZM849.78,257.93h16.19c1.26,0,2.45.05,3.62.14,0,.33.03.64.03.98,0,9.32-2.78,16.62-8.33,21.91-3.2,3.05-7.04,5.21-11.51,6.5v-29.52Z"/>
    <path class="cls-10" d="M1163.12,275.86c0-18.77-5.33-33.68-15.96-44.74-.12-.12-.25-.24-.37-.37-.12-.13-.25-.24-.37-.37-.12-.13-.25-.24-.37-.37-.12-.13-.25-.24-.37-.37-.12-.12-.25-.24-.37-.37-.12-.13-.25-.24-.37-.37-.12-.13-.25-.24-.37-.37-.12-.13-.25-.24-.37-.37-.12-.12-.25-.24-.37-.37-.12-.13-.25-.24-.37-.37-.12-.13-.25-.24-.37-.37-.12-.13-.25-.24-.37-.37-.12-.13-.25-.24-.37-.37-.12-.13-.25-.24-.37-.37-.12-.13-.25-.24-.37-.37-.12-.13-.25-.24-.37-.37-.12-.13-.25-.24-.37-.37-.12-.13-.25-.24-.37-.37-.12-.13-.25-.24-.37-.37-.12-.13-.25-.24-.37-.37-.12-.13-.25-.24-.37-.37-.12-.12-.25-.24-.37-.37-.12-.13-.25-.24-.37-.37-.12-.13-.25-.24-.37-.37-.12-.13-.25-.24-.37-.37-.12-.12-.25-.24-.37-.37-.12-.13-.25-.24-.37-.37-.12-.13-.25-.24-.37-.37-.12-.13-.25-.24-.37-.37-.12-.12-.25-.24-.37-.37-.12-.13-.25-.24-.37-.37-.12-.13-.25-.24-.37-.37-.12-.13-.25-.24-.37-.37-.12-.12-.25-.24-.37-.37-.12-.13-.25-.24-.37-.37-.12-.13-.25-.24-.37-.37-.12-.13-.25-.24-.37-.37-.12-.12-.25-.24-.37-.37-.12-.13-.25-.24-.37-.37-.12-.13-.25-.24-.37-.37-.12-.13-.25-.24-.37-.37-.12-.13-.25-.24-.37-.37-.12-.13-.25-.24-.37-.37-.12-.13-.25-.24-.37-.37-.12-.13-.25-.24-.37-.37-.12-.13-.25-.24-.37-.37-.12-.13-.25-.24-.37-.37-.12-.13-.25-.24-.37-.37-.12-.13-.25-.24-.37-.37-.12-.13-.25-.24-.37-.37-.12-.12-.25-.24-.37-.37-.12-.13-.25-.24-.37-.37-.12-.13-.25-.24-.37-.37-.12-.13-.25-.24-.37-.37-.12-.12-.25-.24-.37-.37-.12-.13-.25-.24-.37-.37-.12-.13-.25-.24-.37-.37-.12-.13-.25-.24-.37-.37-.12-.12-.25-.24-.37-.37-.12-.13-.25-.24-.37-.37-15.21-16.13-41.55-24.19-79.01-24.19h-76.03v232.07h.37v.37h.37v.37h.37v.37h.37v.37h.37v.37h.37v.37h.37v.37h.37v.37h.37v.37h.37v.37h.37v.37h.37v.37h.37v.37h.37v.37h.37v.37h.37v.37h.37v.37h.37v.37h.37v.37h.37v.37h.37v.37h.37v.37h.37v.37h.37v.37h.37v.37h.37v.37h.37v.37h.37v.37h.37v.37h.37v.37h.37v.37h.37v.37h.37v.37h.37v.37h.37v.37h.37v.37h.37v.37h.37v.37h.37v.37h.37v.37h.37v.37h.37v.37h.37v.37h.37v.37h.37v.37h.37v.37h.37v.37h.37v.37h.37v.37h.37v.37h.37v.37h.37v.37h.37v.37h.37v.37h.37v.37h.37v.37h.37v.37h.37v.37h.37v.37h.37v.37h.37v.37h62.7v-84.45h6.54l36.17,62.07h.15l.21.37h.15l.21.37h.15l.21.37h.15l.21.37h.15l.21.37h.15l.21.37h.15l.21.37h.15l.21.37h.15l.21.37h.15l.21.37h.15l.21.37h.15l.21.37h.15l.21.37h.15l.21.37h.15l.21.37h.15l.21.37h.15l.21.37h.15l.21.37h.15l.21.37h.15l.21.37h.15l.21.37h.15l.21.37h.15l.21.37h.15l.21.37h.15l.21.37h.15l.21.37h.15l.21.37h.15l.21.37h.15l.21.37h.15l.21.37h.15l.21.37h.15l.21.37h.15l.21.37h.15l.21.37h.15l.21.37h.15l.21.37h.15l.21.37h.15l.21.37h.15l.21.37h.15l.21.37h.15l.21.37h.15l.21.37h.15l.21.37h.15l.21.37h.15l.21.37h.15l.21.37h.15l.21.37h.15l.21.37h.15l.21.37h.15l.21.37h.15l.21.37h.15l.21.37h.15l.21.37h.15l.21.37h.15l.21.37h.15l.21.37h.15l.21.37h.15l.21.37h.15l.21.37h.15l.21.37h.15l.21.37h71.11l-67.62-101.11c26.24-14.71,39.37-35.5,39.37-62.38ZM1077.41,256.34c0,15.93-7.41,25.3-22.23,28.13v-29.72h12.38c3.58,0,6.85.23,9.83.67,0,.31.02.61.02.92Z"/>
    <path class="cls-10" d="M1399.08,231.92c-.12-.12-.24-.25-.37-.37-.12-.12-.24-.24-.37-.37-.12-.12-.24-.24-.37-.37-.12-.12-.24-.25-.37-.37-.12-.12-.24-.25-.37-.37-.12-.12-.24-.24-.37-.37-.12-.12-.24-.24-.37-.37-.12-.12-.24-.25-.37-.37-.12-.12-.24-.25-.37-.37-.12-.12-.24-.24-.37-.37-.12-.12-.24-.24-.37-.37-.12-.12-.24-.25-.37-.37-.12-.12-.24-.25-.37-.37-.12-.12-.24-.24-.37-.37-.12-.12-.24-.24-.37-.37-.12-.12-.24-.25-.37-.37-.12-.12-.24-.24-.37-.37-.12-.12-.24-.25-.37-.37-.12-.12-.24-.24-.36-.36-.12-.12-.24-.25-.37-.37-.12-.12-.24-.24-.37-.37-.12-.12-.24-.25-.37-.37-.12-.12-.24-.24-.37-.37-.12-.12-.24-.24-.37-.37-.12-.12-.24-.25-.37-.37-.12-.12-.24-.25-.37-.37-.12-.12-.24-.24-.37-.37-.12-.12-.24-.24-.37-.37-.12-.12-.24-.25-.37-.37-.12-.12-.24-.25-.37-.37-.12-.12-.24-.24-.37-.37-.12-.12-.24-.24-.37-.37-.12-.12-.24-.25-.37-.37-.12-.12-.24-.25-.37-.37-.12-.12-.24-.24-.37-.37-.12-.12-.24-.24-.37-.37-.12-.12-.24-.25-.37-.37-.12-.12-.24-.25-.37-.37-.12-.12-.24-.24-.37-.37-.12-.12-.24-.24-.37-.37-.12-.12-.24-.25-.37-.37-.12-.12-.24-.25-.37-.37-.12-.12-.24-.24-.37-.37-.12-.12-.24-.24-.37-.37-.12-.12-.24-.25-.37-.37-.12-.12-.24-.24-.37-.37-.12-.12-.24-.25-.37-.37-.12-.12-.24-.24-.36-.36-.12-.12-.24-.25-.37-.37-.12-.12-.24-.24-.37-.37-.12-.12-.24-.25-.37-.37-.12-.12-.24-.24-.37-.37-.12-.12-.24-.24-.37-.37-.12-.12-.24-.25-.37-.37-.12-.12-.24-.25-.37-.37-.12-.12-.24-.24-.37-.37-.12-.12-.24-.24-.37-.37-.12-.12-.24-.25-.37-.37-.12-.12-.24-.25-.37-.37-.12-.12-.24-.24-.37-.37-19-19.1-46.45-28.65-82.35-28.65s-64.9,10.19-84.21,30.56c-19.31,20.37-28.97,49.87-28.97,88.5s9.71,68.79,29.13,89.21c.65.68,1.31,1.35,1.98,2.02.12.12.24.24.37.37.12.12.25.25.37.37.12.12.24.24.37.37.12.12.24.25.37.37.12.12.24.24.37.37.12.12.25.25.37.37.12.12.24.24.37.37.12.12.24.25.37.37.12.12.24.24.37.37.12.12.25.25.37.37.12.12.24.24.37.37.12.12.24.25.37.37.12.12.24.24.37.37.12.12.24.25.37.37.12.12.24.25.37.37.12.12.24.24.37.37.12.12.24.24.37.37.12.12.24.25.37.37.12.12.24.25.37.37.12.12.24.24.37.37.12.12.24.24.37.37.12.12.24.25.37.37.12.12.24.25.37.37.12.12.24.24.37.37.12.12.24.24.37.37.12.12.24.25.37.37.12.12.24.25.37.37.12.12.24.24.37.37.12.12.24.25.37.37.12.12.24.24.37.37.12.12.25.25.37.37.12.12.24.24.37.37.12.12.24.25.37.37.12.12.24.24.37.37.12.12.25.25.37.37.12.12.24.24.37.37.12.12.24.25.37.37.12.12.24.24.37.37.12.12.25.25.37.37.12.12.24.24.37.37.12.12.24.25.37.37.12.12.24.24.37.37.12.12.24.25.37.37.12.12.24.25.37.37.12.12.24.24.37.37.12.12.24.24.37.37.12.12.24.25.37.37.12.12.24.25.37.37.12.12.24.24.37.37.12.12.24.24.37.37.12.12.24.25.37.37.12.12.24.25.37.37.12.12.24.24.37.37.12.12.24.24.37.37.12.12.24.25.37.37.12.12.24.25.37.37.12.12.24.24.37.37.12.12.24.25.37.37.12.12.24.24.37.37.12.12.25.25.37.37,19.34,19.32,46.71,28.99,82.12,28.99s64.98-10.16,84.13-30.48c19.15-20.32,28.73-50,28.73-89.05s-9.52-68.84-28.57-89.05c-.65-.69-1.32-1.37-1.99-2.04ZM1341.23,300.63c0,23.07-3.84,40.06-11.51,50.95-7.67,10.9-19.44,16.35-35.32,16.35-6.48,0-12.28-.98-17.42-2.92-4.68-10.65-7.03-24.64-7.03-42.01,0-45.29,15.71-67.94,47.14-67.94,6.4,0,12.14.97,17.23,2.87,4.6,10.66,6.91,24.88,6.91,42.7Z"/>
    <path class="cls-10" d="M1984.46,280.9c-.12-.12-.25-.24-.37-.37-.12-.12-.24-.24-.37-.37-.12-.12-.25-.24-.37-.37-.12-.12-.24-.24-.37-.37-.12-.12-.25-.24-.37-.37-.12-.12-.24-.24-.37-.37-.12-.12-.25-.24-.37-.37-.12-.12-.24-.24-.37-.37-.12-.12-.25-.24-.37-.37-.12-.12-.24-.24-.37-.37-.12-.12-.24-.24-.37-.37-.12-.12-.25-.24-.37-.37-.12-.12-.25-.24-.37-.37-.12-.12-.24-.24-.37-.37-.12-.12-.24-.24-.37-.37-.12-.12-.25-.24-.37-.37-.12-.12-.25-.24-.37-.37-.12-.12-.24-.24-.37-.37-.12-.12-.24-.24-.37-.37-.12-.12-.24-.24-.37-.37-.12-.12-.24-.24-.37-.37-.12-.12-.25-.24-.37-.37-.12-.12-.24-.24-.37-.37-.12-.12-.25-.24-.37-.37-.12-.12-.24-.24-.37-.37-.12-.12-.25-.24-.37-.37-.12-.12-.24-.24-.37-.37-.12-.12-.25-.24-.37-.37-.12-.12-.24-.24-.37-.37-.12-.12-.25-.24-.37-.37-.12-.12-.24-.24-.37-.37-.12-.12-.24-.24-.37-.37-.12-.12-.24-.24-.37-.37-.12-.12-.25-.24-.37-.37-.12-.12-.24-.24-.37-.37-.12-.12-.25-.24-.37-.37-.12-.12-.24-.24-.37-.37-.12-.12-.25-.24-.37-.37-.12-.12-.24-.24-.37-.37-.12-.12-.24-.24-.37-.37-.12-.12-.25-.24-.37-.37-.12-.12-.25-.24-.37-.37-.12-.12-.24-.24-.37-.37-.12-.12-.24-.24-.37-.37-.12-.12-.24-.24-.37-.37-.12-.12-.25-.24-.37-.37-.12-.12-.24-.24-.37-.37-.12-.12-.24-.24-.37-.37-.12-.12-.25-.24-.37-.37-.12-.12-.24-.24-.37-.37-.12-.12-.25-.24-.37-.37-.12-.12-.24-.24-.37-.37-.12-.12-.25-.24-.37-.37-.12-.12-.24-.24-.37-.37-.12-.12-.25-.24-.37-.37-.12-.12-.24-.24-.37-.37-.12-.12-.24-.24-.37-.37-.12-.12-.24-.24-.37-.37-.12-.12-.25-.24-.37-.37-.12-.12-.24-.24-.37-.37-12.46-12.7-28.94-19.05-49.45-19.05-23.28,0-41.83,8.25-55.64,24.76-13.81,16.51-20.71,38.79-20.71,66.83s7.43,49.58,22.3,65.24c.12.12.24.24.36.36,0,0,0,0,0,0,.12.12.24.24.36.36,0,0,0,0,0,0,.12.12.24.24.36.36,0,0,0,0,0,0,.12.12.24.24.36.36,0,0,0,0,0,0,.12.12.24.24.36.36,0,0,0,0,0,0,.12.12.24.24.36.36,0,0,0,0,0,0,.12.12.24.24.36.36,0,0,0,0,0,0,.12.12.24.24.36.36,0,0,0,0,0,0,.12.12.24.24.36.36,0,0,0,0,0,0,.12.12.24.24.36.36,0,0,0,0,0,0,.12.12.24.24.36.36,0,0,0,0,0,0,.12.12.24.24.36.36,0,0,0,0,0,0,.12.12.24.24.36.36,0,0,0,0,0,0,.12.12.24.24.36.36,0,0,0,0,0,0,.12.12.24.24.36.36,0,0,0,0,0,0,.12.12.24.24.36.36,0,0,0,0,0,0,.12.12.24.24.36.36,0,0,0,0,0,0,.12.12.24.24.36.36,0,0,0,0,0,0,.12.12.24.24.36.36,0,0,0,0,0,0,.12.12.24.24.36.36,0,0,0,0,0,0,.12.12.24.24.36.36,0,0,0,0,0,0,.12.12.24.24.36.36,0,0,0,0,0,0,.12.12.24.24.36.36,0,0,0,0,0,0,.12.12.24.24.36.36,0,0,0,0,0,0,.12.12.24.24.36.36,0,0,0,0,0,0,.12.12.24.24.36.36,0,0,0,0,0,0,.12.12.24.24.36.36,0,0,0,0,0,0,.12.12.24.24.36.36,0,0,0,0,0,0,.12.12.24.24.36.36,0,0,0,0,0,0,.12.12.24.24.36.36,0,0,0,0,0,0,.12.12.24.24.36.36,0,0,0,0,0,0,.12.12.24.24.36.36,0,0,0,0,0,0,.12.12.24.24.36.36,0,0,0,0,0,0,.12.12.24.24.36.36,0,0,0,0,0,0,.12.12.24.24.36.36,0,0,0,0,0,0,.12.12.24.24.36.36,0,0,0,0,0,0,.12.12.24.24.36.36,0,0,0,0,0,0,.12.12.24.24.36.36,0,0,0,0,0,0,.12.12.24.24.36.36,0,0,0,0,0,0,.12.12.24.24.36.36,0,0,0,0,0,0,.12.12.24.24.36.36,0,0,0,0,0,0,.12.12.24.24.36.36,0,0,0,0,0,0,.12.12.24.24.36.36,0,0,0,0,0,0,.12.12.24.24.36.36,0,0,0,0,0,0,.12.12.24.24.36.36,0,0,0,0,0,0,.12.12.24.24.36.36,0,0,0,0,0,0,.12.12.24.24.36.36,0,0,0,0,0,0,.12.12.24.24.36.36,0,0,0,0,0,0,.12.12.24.24.36.36,0,0,0,0,0,0,.12.12.24.24.36.36,0,0,0,0,0,0,.12.12.24.24.36.36,0,0,0,0,0,0,.12.12.24.24.36.36,0,0,0,0,0,0,.12.12.24.24.36.36,0,0,0,0,0,0,.12.12.24.24.36.36,0,0,0,0,0,0,.12.12.24.24.36.36,0,0,0,0,0,0,.12.12.24.24.36.36,0,0,0,0,0,0,.12.12.24.24.36.36,0,0,0,0,0,0,.12.12.24.24.36.36,0,0,0,0,0,0,.12.12.24.24.36.36,0,0,0,0,0,0,.12.12.24.24.36.36,0,0,0,0,0,0,.12.12.24.24.36.36,0,0,0,0,0,0,14.87,15.66,35.16,23.49,60.88,23.49,11.75,0,21.77-.87,30.08-2.62,8.31-1.74,17.11-4.63,26.43-8.65v-23.49c-.12.05-.24.1-.37.15v-.52c-.12.05-.24.1-.37.15v-.52c-.12.05-.24.1-.37.15v-.52c-.12.05-.24.1-.37.15v-.52c-.12.05-.24.1-.37.15v-.52c-.12.05-.24.1-.37.15v-.52c-.12.05-.24.1-.37.15v-.52c-.12.05-.24.1-.37.15v-.52c-.12.05-.24.1-.37.15v-.52c-.12.05-.24.1-.37.15v-.52c-.12.05-.24.1-.37.15v-.52c-.12.05-.24.1-.37.15v-.52c-.12.05-.24.1-.37.15v-.52c-.12.05-.24.1-.37.15v-.52c-.12.05-.24.1-.37.15v-.52c-.12.05-.24.1-.37.15v-.52c-.12.05-.24.1-.37.15v-.52c-.12.05-.24.1-.37.15v-.52c-.12.05-.24.1-.37.15v-.52c-.12.05-.24.1-.37.15v-.52c-.12.05-.24.1-.37.15v-.52c-.12.05-.24.1-.37.15v-.52c-.12.05-.24.1-.37.15v-.52c-.12.05-.24.1-.37.15v-.52c-.12.05-.24.1-.37.15v-.52c-.12.05-.24.1-.37.15v-.52c-.12.05-.24.1-.37.15v-.52c-.12.05-.24.1-.37.15v-.52c-.12.05-.24.1-.37.15v-.52c-.12.05-.24.1-.37.15v-.52c-.12.05-.24.1-.37.15v-.52c-.12.05-.24.1-.37.15v-.52c-.12.05-.24.1-.37.15v-.52c-.12.05-.24.1-.37.15v-.52c-.12.05-.24.1-.37.15v-.52c-.12.05-.24.1-.37.15v-.52c-.12.05-.24.1-.37.15v-.52c-.12.05-.24.1-.37.15v-.52c-.12.05-.24.1-.37.15v-.52c-.12.05-.24.1-.37.15v-.52c-.12.05-.24.1-.37.15v-.52c-.12.05-.24.1-.37.15v-.52c-.12.05-.24.1-.37.15v-.52c-.12.05-.24.1-.37.15v-.52c-.12.05-.24.1-.37.15v-.52c-.12.05-.24.1-.37.15v-.52c-.12.05-.24.1-.37.15v-.52c-.12.05-.24.1-.37.15v-.52c-.12.05-.24.1-.37.15v-.52c-.12.05-.24.1-.37.15v-.52c-.12.05-.24.1-.37.15v-.52c-.12.05-.24.1-.37.15v-.52c-.12.05-.24.1-.37.15v-.52c-.12.05-.24.1-.37.15v-.52c-.12.05-.24.1-.37.15v-.52c-.12.05-.24.1-.37.15v-.52c-.12.05-.24.1-.37.15v-.52c-.12.05-.24.1-.37.15v-.52c-.12.05-.24.1-.37.15v-.52c-.12.05-.24.1-.37.15v-.52c-.12.05-.24.1-.37.15v-.52c-18.31,7.83-36.83,11.75-55.56,11.75-10.39,0-19.41-1.82-27.07-5.43-4.56-9.29-7.03-20.81-7.38-34.57h119.85v-16.67c0-23.49-6.35-42.41-19.05-56.75-.87-.98-1.76-1.91-2.67-2.83ZM1955.54,313.33h-63.44c2.41-5.92,5.58-11.06,9.54-15.4,8.31-9.1,19.44-13.65,33.41-13.65,5.99,0,11.37.84,16.16,2.51,2.88,7.34,4.32,16.18,4.32,26.54Z"/>
    <path class="cls-10" d="M2180.56,277.31c-.1-.1-.2-.21-.3-.31-.02-.02-.05-.04-.07-.06-.1-.1-.2-.21-.3-.31-.02-.02-.04-.04-.07-.06-.1-.1-.2-.21-.3-.31-.02-.02-.05-.04-.07-.06-.1-.1-.2-.21-.3-.31-.02-.02-.05-.04-.07-.06-.1-.1-.2-.21-.3-.31-.02-.02-.05-.04-.07-.06-.1-.1-.2-.21-.3-.31-.02-.02-.04-.04-.07-.06-.1-.1-.2-.21-.3-.31-.02-.02-.05-.04-.07-.06-.1-.1-.2-.21-.3-.31-.02-.02-.05-.04-.07-.06-.1-.1-.2-.21-.3-.31-.02-.02-.05-.04-.07-.06-.1-.1-.2-.21-.3-.31-.02-.02-.04-.04-.07-.06-.1-.1-.2-.21-.3-.31-.02-.02-.05-.04-.07-.06-.1-.1-.2-.21-.3-.31-.02-.02-.05-.04-.07-.06-.1-.1-.2-.21-.3-.31-.02-.02-.04-.04-.07-.06-.1-.1-.2-.21-.3-.31-.02-.02-.04-.04-.07-.06-.1-.1-.2-.21-.3-.31-.02-.02-.05-.04-.07-.06-.1-.1-.2-.21-.3-.31-.02-.02-.05-.04-.07-.06-.1-.1-.2-.21-.3-.31-.02-.02-.04-.04-.07-.06-.1-.1-.2-.21-.3-.31-.02-.02-.04-.04-.07-.06-.1-.1-.2-.21-.3-.31-.02-.02-.05-.04-.07-.06-.1-.1-.2-.21-.3-.31-.02-.02-.05-.04-.07-.06-.1-.1-.2-.21-.3-.31-.02-.02-.05-.04-.07-.06-.1-.1-.2-.21-.3-.31-.02-.02-.04-.04-.07-.06-.1-.1-.2-.21-.3-.31-.02-.02-.05-.04-.07-.06-.1-.1-.2-.21-.3-.31-.02-.02-.05-.04-.07-.06-.1-.1-.2-.21-.3-.31-.02-.02-.05-.04-.07-.06-.1-.1-.2-.21-.3-.31-.02-.02-.04-.04-.07-.06-.1-.1-.2-.21-.3-.31-.02-.02-.05-.04-.07-.06-.1-.1-.2-.21-.3-.31-.02-.02-.05-.04-.07-.06-.1-.1-.2-.21-.3-.31-.02-.02-.05-.04-.07-.06-.1-.1-.2-.21-.3-.31-.02-.02-.05-.04-.07-.06-.1-.1-.2-.21-.3-.31-.02-.02-.04-.04-.07-.06-.1-.1-.2-.21-.3-.31-.02-.02-.05-.04-.07-.06-.1-.1-.2-.21-.3-.31-.02-.02-.05-.04-.07-.06-.1-.1-.2-.21-.3-.31-.02-.02-.05-.04-.07-.06-.1-.1-.2-.21-.3-.31-.02-.02-.04-.04-.07-.06-.1-.1-.2-.21-.3-.31-.02-.02-.05-.04-.07-.06-.1-.1-.2-.21-.3-.31-.02-.02-.05-.04-.07-.06-.1-.1-.2-.21-.3-.31-.02-.02-.04-.04-.07-.06-.1-.1-.2-.21-.3-.31-.02-.02-.04-.04-.07-.06-.1-.1-.2-.21-.3-.31-.02-.02-.05-.04-.07-.06-.1-.1-.2-.21-.3-.31-.02-.02-.05-.04-.07-.06-.1-.1-.2-.21-.3-.31-.02-.02-.04-.04-.07-.06-.1-.1-.2-.21-.3-.31-.02-.02-.04-.04-.07-.06-.1-.1-.2-.21-.3-.31-.02-.02-.05-.04-.07-.06-.1-.1-.2-.21-.3-.31-.02-.02-.05-.04-.07-.06-.1-.1-.2-.21-.3-.31-.02-.02-.05-.04-.07-.06-.1-.1-.2-.21-.3-.31-.02-.02-.04-.04-.07-.06-.1-.1-.2-.21-.3-.31-.02-.02-.05-.04-.07-.06-.1-.1-.2-.21-.3-.31-.02-.02-.05-.04-.07-.06-.1-.1-.2-.21-.3-.31-.02-.02-.05-.04-.07-.06-.1-.1-.2-.21-.3-.31-.02-.02-.04-.04-.07-.06-.1-.1-.2-.21-.3-.31-.02-.02-.05-.04-.07-.06-.1-.1-.2-.21-.3-.31-.02-.02-.05-.04-.07-.06-.1-.1-.2-.21-.3-.31-.02-.02-.05-.04-.07-.06-.1-.1-.2-.21-.3-.31-.02-.02-.04-.04-.07-.06-.1-.1-.2-.21-.3-.31-.02-.02-.04-.04-.07-.06-.1-.1-.2-.21-.3-.31-.02-.02-.05-.04-.07-.06-.1-.1-.2-.21-.3-.31-.02-.02-.05-.04-.07-.06-.1-.1-.2-.21-.3-.31-.02-.02-.05-.04-.07-.06-.1-.1-.2-.21-.3-.31-.02-.02-.04-.04-.07-.06-.1-.1-.2-.21-.3-.31-10.58-10.1-26.35-15.16-47.3-15.16-11.96,0-22.81,2.36-32.54,7.06-5.59,2.71-10.45,6.07-14.61,10.05h0l-.07-.37h-.3l-.07-.37h-.3l-.07-.37h-.3l-.07-.37h-.3l-.07-.37h-.3l-.07-.37h-.3l-.07-.37h-.3l-.07-.37h-.3l-.07-.37h-.3l-.07-.37h-.3l-.07-.37h-.3l-.07-.37h-.3l-.07-.37h-.3l-.07-.37h-.3l-.07-.37h-.3l-.07-.37h-.3l-.07-.37h-.3l-.07-.37h-.3l-.07-.37h-.3l-.07-.37h-.3l-.07-.37h-.3l-.07-.37h-.3l-.07-.37h-.3l-.07-.37h-.3l-.07-.37h-.3l-.07-.37h-.3l-.07-.37h-.3l-.07-.37h-.3l-.07-.37h-.3l-.07-.37h-.3l-.07-.37h-.3l-.07-.37h-.3l-.07-.37h-.3l-.07-.37h-.3l-.07-.37h-.3l-.07-.37h-.3l-.07-.37h-.3l-.07-.37h-21.43v173.98h.37v.37h.37v.37h.37v.37h.37v.37h.37v.37h.37v.37h.37v.37h.37v.37h.37v.37h.37v.37h.37v.37h.37v.37h.37v.37h.37v.37h.37v.37h.37v.37h.37v.37h.37v.37h.37v.37h.37v.37h.37v.37h.37v.37h.37v.37h.37v.37h.37v.37h.37v.37h.37v.37h.37v.37h.37v.37h.37v.37h.37v.37h.37v.37h.37v.37h.37v.37h.37v.37h.37v.37h.37v.37h.37v.37h.37v.37h.37v.37h.37v.37h.37v.37h.37v.37h.37v.37h.37v.37h.37v.37h.37v.37h.37v.37h.37v.37h.37v.37h.37v.37h.37v.37h.37v.37h.37v.37h.37v.37h.37v.37h.37v.37h.37v.37h.37v.37h.37v.37h.37v.37h26.35v-91.27c0-22.64,4.23-38.89,12.7-48.73,8.46-9.84,21.8-14.76,40-14.76,5.76,0,10.88.62,15.36,1.85,1.5,5.17,2.26,11.16,2.26,18v112.54h.37v.37h.37v.37h.37v.37h.37v.37h.37v.37h.37v.37h.37v.37h.37v.37h.37v.37h.37v.37h.37v.37h.37v.37h.37v.37h.37v.37h.37v.37h.37v.37h.37v.37h.37v.37h.37v.37h.37v.37h.37v.37h.37v.37h.37v.37h.37v.37h.37v.37h.37v.37h.37v.37h.37v.37h.37v.37h.37v.37h.37v.37h.37v.37h.37v.37h.37v.37h.37v.37h.37v.37h.37v.37h.37v.37h.37v.37h.37v.37h.37v.37h.37v.37h.37v.37h.37v.37h.37v.37h.37v.37h.37v.37h.37v.37h.37v.37h.37v.37h.37v.37h.37v.37h.37v.37h.37v.37h.37v.37h.37v.37h.37v.37h.37v.37h.37v.37h.37v.37h.37v.37h26.35v-113.5c0-22.23-5.29-38.39-15.88-48.5-.02-.02-.05-.04-.07-.06Z"/>
    <path class="cls-10" d="M2351.98,363.17c-.11-.11-.23-.23-.34-.34,0,0-.02-.02-.02-.03-.11-.11-.23-.23-.34-.34,0,0-.02-.02-.03-.03-.11-.11-.23-.23-.34-.34,0,0-.02-.02-.03-.03-.11-.11-.23-.22-.34-.34,0,0-.02-.02-.03-.03-.11-.11-.23-.23-.34-.34,0,0-.02-.02-.03-.03-.11-.11-.23-.23-.34-.34,0,0-.02-.02-.03-.03-.11-.11-.23-.23-.34-.34,0,0-.02-.02-.03-.03-.11-.11-.23-.22-.34-.34,0,0-.02-.02-.03-.03-.11-.11-.23-.23-.34-.34,0,0-.02-.02-.03-.03-.11-.11-.23-.23-.34-.34,0,0-.02-.02-.03-.03-.11-.11-.23-.23-.34-.34,0,0-.02-.02-.03-.03-.11-.11-.23-.23-.34-.34,0,0-.02-.02-.03-.03-.11-.11-.23-.22-.34-.34,0,0-.02-.02-.03-.03-.11-.11-.23-.23-.34-.34,0,0-.02-.02-.03-.03-.11-.11-.23-.23-.34-.34,0,0-.02-.02-.03-.03-.11-.11-.23-.23-.34-.34,0,0-.02-.02-.03-.03-.11-.11-.23-.22-.34-.34,0,0-.02-.02-.03-.03-.11-.11-.23-.23-.34-.34,0,0-.02-.02-.03-.03-.11-.11-.23-.23-.34-.34,0,0-.02-.02-.03-.03-.11-.11-.23-.23-.34-.34,0,0-.02-.02-.03-.03-.11-.11-.23-.22-.34-.34,0,0-.02-.02-.03-.03-.11-.11-.23-.23-.34-.34,0,0-.02-.02-.03-.03-.11-.11-.23-.23-.34-.34,0,0-.02-.02-.03-.03-.11-.11-.23-.23-.34-.34,0,0-.02-.02-.03-.03-.11-.11-.23-.22-.34-.34,0,0-.02-.02-.03-.03-.11-.11-.23-.23-.34-.34,0,0-.02-.02-.03-.03-.11-.11-.23-.23-.34-.34,0,0-.02-.02-.03-.03-.11-.11-.23-.23-.34-.34,0,0-.02-.02-.03-.03-.11-.11-.23-.22-.34-.34,0,0-.02-.02-.03-.03-.11-.11-.23-.23-.34-.34,0,0-.02-.02-.03-.03-.11-.11-.23-.23-.34-.34,0,0-.02-.02-.03-.03-.11-.11-.23-.23-.34-.34,0,0-.02-.02-.03-.03-.11-.11-.23-.22-.34-.34,0,0-.02-.02-.03-.03-.11-.11-.23-.23-.34-.34,0,0-.02-.02-.03-.03-.11-.11-.23-.23-.34-.34,0,0-.02-.02-.03-.03-.11-.11-.23-.23-.34-.34,0,0-.02-.02-.03-.03-.11-.11-.23-.22-.34-.34,0,0-.02-.02-.03-.03-.11-.11-.23-.23-.34-.34,0,0-.02-.02-.03-.03-.11-.11-.23-.23-.34-.34,0,0-.02-.02-.03-.03-.11-.11-.23-.23-.34-.34,0,0-.02-.02-.03-.03-.11-.11-.23-.23-.34-.34,0,0-.02-.02-.03-.03-.11-.11-.23-.22-.34-.34,0,0-.02-.02-.03-.03-.11-.11-.23-.23-.34-.34,0,0-.02-.02-.03-.03-.11-.11-.23-.23-.34-.34,0,0-.02-.02-.03-.03-.11-.11-.23-.23-.34-.34,0,0-.02-.02-.03-.03-.11-.11-.23-.22-.34-.34,0,0-.02-.02-.03-.03-.11-.11-.23-.23-.34-.34,0,0-.02-.02-.03-.03-.11-.11-.23-.23-.34-.34,0,0-.02-.02-.03-.03-.11-.11-.23-.23-.34-.34,0,0-.02-.02-.03-.03-.11-.11-.23-.22-.34-.34,0,0-.02-.02-.03-.03-.11-.11-.23-.23-.34-.34,0,0-.02-.02-.03-.03-.11-.11-.23-.23-.34-.34,0,0-.02-.02-.03-.03-.11-.11-.23-.23-.34-.34,0,0-.02-.02-.03-.03-.11-.11-.23-.22-.34-.34,0,0-.02-.02-.03-.03-.11-.11-.23-.23-.34-.34,0,0-.02-.02-.03-.03-.11-.11-.23-.23-.34-.34,0,0-.02-.02-.03-.03-.11-.11-.23-.23-.34-.34,0,0-.02-.02-.03-.03-.11-.11-.23-.22-.34-.34,0,0-.02-.02-.03-.03-.11-.11-.23-.23-.34-.34,0,0-.02-.02-.03-.03-.11-.11-.23-.23-.34-.34,0,0-.02-.02-.03-.03-.11-.11-.23-.23-.34-.34,0,0-.02-.02-.03-.03-7.25-7.62-21.19-15.18-41.83-22.7-9.72-3.63-17.4-6.7-23.04-9.22-.08-.82-.14-1.66-.14-2.53,0-6.88,3.17-12.28,9.52-16.19,6.35-3.91,15.77-5.87,28.26-5.87,14.18,0,30,3.6,47.46,10.8l9.36-21.43c-.15-.06-.3-.12-.45-.18l.08-.18c-.15-.06-.3-.12-.45-.18l.08-.18c-.15-.06-.3-.12-.45-.18l.08-.18c-.15-.06-.3-.12-.45-.18l.08-.18c-.15-.06-.3-.12-.45-.18l.08-.18c-.15-.06-.3-.12-.45-.18l.08-.18c-.15-.06-.3-.12-.45-.18l.08-.18c-.15-.06-.3-.12-.45-.18l.08-.18c-.15-.06-.3-.12-.45-.18l.08-.18c-.15-.06-.3-.12-.45-.18l.08-.18c-.15-.06-.3-.12-.45-.18l.08-.18c-.15-.06-.3-.12-.45-.18l.08-.18c-.15-.06-.3-.12-.45-.18l.08-.18c-.15-.06-.3-.12-.45-.18l.08-.18c-.15-.06-.3-.12-.45-.18l.08-.18c-.15-.06-.3-.12-.45-.18l.08-.18c-.15-.06-.3-.12-.45-.18l.08-.18c-.15-.06-.3-.12-.45-.18l.08-.18c-.15-.06-.3-.12-.45-.18l.08-.18c-.15-.06-.3-.12-.45-.18l.08-.18c-.15-.06-.3-.12-.45-.18l.08-.18c-.15-.06-.3-.12-.45-.18l.08-.18c-.15-.06-.3-.12-.45-.18l.08-.18c-.15-.06-.3-.12-.45-.18l.08-.18c-.15-.06-.3-.12-.45-.18l.08-.18c-.15-.06-.3-.12-.45-.18l.08-.18c-.15-.06-.3-.12-.45-.18l.08-.18c-.15-.06-.3-.12-.45-.18l.08-.18c-.15-.06-.3-.12-.45-.18l.08-.18c-.15-.06-.3-.12-.45-.18l.08-.18c-.15-.06-.3-.12-.45-.18l.08-.18c-.15-.06-.3-.12-.45-.18l.08-.18c-.15-.06-.3-.12-.45-.18l.08-.18c-.15-.06-.3-.12-.45-.18l.08-.18c-.15-.06-.3-.12-.45-.18l.08-.18c-.15-.06-.3-.12-.45-.18l.08-.18c-.15-.06-.3-.12-.45-.18l.08-.18c-.15-.06-.3-.12-.45-.18l.08-.18c-.15-.06-.3-.12-.45-.18l.08-.18c-.15-.06-.3-.12-.45-.18l.08-.18c-.15-.06-.3-.12-.45-.18l.08-.18c-.15-.06-.3-.12-.45-.18l.08-.18c-.15-.06-.3-.12-.45-.18l.08-.18c-.15-.06-.3-.12-.45-.18l.08-.18c-.15-.06-.3-.12-.45-.18l.08-.18c-.15-.06-.3-.12-.45-.18l.08-.18c-.15-.06-.3-.12-.45-.18l.08-.18c-.15-.06-.3-.12-.45-.18l.08-.18c-.15-.06-.3-.12-.45-.18l.08-.18c-.15-.06-.3-.12-.45-.18l.08-.18c-.15-.06-.3-.12-.45-.18l.08-.18c-.15-.06-.3-.12-.45-.18l.08-.18c-.15-.06-.3-.12-.45-.18l.08-.18c-.15-.06-.3-.12-.45-.18l.08-.18c-.15-.06-.3-.12-.45-.18l.08-.18c-.15-.06-.3-.12-.45-.18l.08-.18c-.15-.06-.3-.12-.45-.18l.08-.18c-.15-.06-.3-.12-.45-.18l.08-.18c-.15-.06-.3-.12-.45-.18l.08-.18c-.15-.06-.3-.12-.45-.18l.08-.18c-.15-.06-.3-.12-.45-.18l.08-.18c-17.89-7.62-36.19-11.43-54.92-11.43-20.11,0-35.93,4.1-47.46,12.3-11.54,8.2-17.3,19.39-17.3,33.57,0,7.94,1.67,14.76,5,20.48,1.71,2.93,3.89,5.7,6.52,8.31.12.12.24.24.37.37.12.12.24.24.37.37.12.12.24.24.37.37.12.12.24.24.37.37.12.12.24.24.37.37.12.12.24.24.37.37.12.12.24.25.37.37.12.12.24.24.37.37.12.12.24.25.37.37.12.12.24.24.37.37.12.12.24.25.37.37.12.12.24.24.37.37.12.12.24.25.37.37.12.12.24.24.37.37.12.12.24.25.37.37.12.12.24.24.37.37.12.12.24.25.37.37.12.12.24.24.37.37.12.12.24.24.37.37.12.12.24.24.37.37.12.12.24.24.37.37.12.12.24.24.37.37.12.12.24.24.37.37.12.12.24.24.37.37.12.12.24.24.37.37.12.12.24.24.37.37.12.12.24.24.37.37.12.12.24.24.37.37.12.12.24.24.37.37.12.12.24.24.37.37.12.12.24.24.37.37.12.12.24.24.37.37.12.12.24.24.37.37.12.12.24.24.37.37.12.12.24.24.37.37.12.12.24.25.37.37.12.12.24.24.37.37.12.12.24.25.37.37.12.12.24.24.37.37.12.12.24.25.37.37.12.12.24.24.37.37.12.12.24.25.37.37.12.12.24.24.37.37.12.12.24.25.37.37.12.12.24.24.37.37.12.12.24.25.37.37.12.12.24.24.37.37.12.12.24.24.37.37.12.12.24.24.37.37.12.12.24.24.37.37.12.12.24.24.37.37.12.12.24.24.37.37.12.12.24.24.37.37.12.12.24.24.37.37.12.12.24.24.37.37.12.12.24.24.37.37.12.12.24.24.37.37.12.12.24.24.37.37.12.12.24.24.37.37.12.12.24.24.37.37,2.58,2.62,5.6,5.07,9.09,7.37,6.83,4.5,18.33,9.76,34.52,15.79,8.12,3.13,14.97,6.06,20.55,8.79.16,1.07.25,2.16.25,3.28,0,9-3.71,15.69-11.11,20.08-7.41,4.39-17.99,6.59-31.75,6.59-8.89,0-18.12-1.22-27.7-3.65-9.58-2.43-18.55-5.77-26.91-10v24.45c.12.07.25.13.37.2v.17c.12.07.25.13.37.2v.17c.12.07.25.13.37.2v.17c.12.07.25.13.37.2v.17c.12.07.25.13.37.2v.17c.12.07.25.13.37.2v.17c.12.07.25.13.37.2v.17c.12.07.25.13.37.2v.17c.12.07.25.13.37.2v.17c.12.07.25.13.37.2v.17c.12.07.25.13.37.2v.17c.12.07.25.13.37.2v.17c.12.07.25.13.37.2v.17c.12.07.25.13.37.2v.17c.12.07.25.13.37.2v.17c.12.07.25.13.37.2v.17c.12.07.25.13.37.2v.17c.12.07.25.13.37.2v.17c.12.07.25.13.37.2v.17c.12.07.25.13.37.2v.17c.12.07.25.13.37.2v.17c.12.07.25.13.37.2v.17c.12.07.25.13.37.2v.17c.12.07.25.13.37.2v.17c.12.07.25.13.37.2v.17c.12.07.25.13.37.2v.17c.12.07.25.13.37.2v.17c.12.07.25.13.37.2v.17c.12.07.25.13.37.2v.17c.12.07.25.13.37.2v.17c.12.07.25.13.37.2v.17c.12.07.25.13.37.2v.17c.12.07.25.13.37.2v.17c.12.07.25.13.37.2v.17c.12.07.25.13.37.2v.17c.12.07.25.13.37.2v.17c.12.07.25.13.37.2v.17c.12.07.25.13.37.2v.17c.12.07.25.13.37.2v.17c.12.07.25.13.37.2v.17c.12.07.25.13.37.2v.17c.12.07.25.13.37.2v.17c.12.07.25.13.37.2v.17c.12.07.25.13.37.2v.17c.12.07.25.13.37.2v.17c.12.07.25.13.37.2v.17c.12.07.25.13.37.2v.17c.12.07.25.13.37.2v.17c.12.07.25.13.37.2v.17c.12.07.25.13.37.2v.17c.12.07.25.13.37.2v.17c.12.07.25.13.37.2v.17c.12.07.25.13.37.2v.17c.12.07.25.13.37.2v.17c.12.07.25.13.37.2v.17c.12.07.25.13.37.2v.17c.12.07.25.13.37.2v.17c.12.07.25.13.37.2v.17c.12.07.25.13.37.2v.17c.12.07.25.13.37.2v.17c.12.07.25.13.37.2v.17c12.91,7.3,30.9,10.95,53.97,10.95,21.8,0,38.73-4.39,50.8-13.17,12.06-8.78,18.1-21.27,18.1-37.46,0-11.53-3.63-21.11-10.87-28.73Z"/>
    <path class="cls-10" d="M1671.67,206.93h-.49l.12-.37h-.49l.12-.37h-.49l.12-.37h-.49l.12-.37h-.49l.12-.37h-.49l.12-.37h-.49l.12-.37h-.49l.12-.37h-.49l.12-.37h-.49l.12-.37h-.49l.12-.37h-.49l.12-.37h-.49l.12-.37h-.49l.12-.37h-.49l.12-.37h-.49l.12-.37h-.49l.12-.37h-.49l.12-.37h-.49l.12-.37h-.49l.12-.37h-.49l.12-.37h-.49l.12-.37h-.49l.12-.37h-.49l.12-.37h-.49l.12-.37h-.49l.12-.37h-.49l.12-.37h-.49l.12-.37h-.49l.12-.37h-.49l.12-.37h-.49l.12-.37h-.49l.12-.37h-.49l.12-.37h-.49l.12-.37h-.49l.12-.37h-.49l.12-.37h-.49l.12-.37h-.49l.12-.37h-.49l.12-.37h-.49l.12-.37h-.49l.12-.37h-.49l.12-.37h-.49l.12-.37h-.49l.12-.37h-.49l.12-.37h-.49l.12-.37h-.49l.12-.37h-.49l.12-.37h-.49l.12-.37h-.49l.12-.37h-.49l.12-.37h-.49l.12-.37h-.49l.12-.37h-.49l.12-.37h-.49l.12-.37h-.49l.12-.37h-.49l.12-.37h-.49l.12-.37h-.49l.12-.37h-.49l.12-.37h-70.16l-32.22,118.26c-.68,2.57-1.42,5.55-2.19,8.89l-28.14-104.77h-.27l-.1-.37h-.27l-.1-.37h-.27l-.1-.37h-.27l-.1-.37h-.27l-.1-.37h-.27l-.1-.37h-.27l-.1-.37h-.27l-.1-.37h-.27l-.1-.37h-.27l-.1-.37h-.27l-.1-.37h-.27l-.1-.37h-.27l-.1-.37h-.27l-.1-.37h-.27l-.1-.37h-.27l-.1-.37h-.27l-.1-.37h-.27l-.1-.37h-.27l-.1-.37h-.27l-.1-.37h-.27l-.1-.37h-.27l-.1-.37h-.27l-.1-.37h-.27l-.1-.37h-.27l-.1-.37h-.27l-.1-.37h-.27l-.1-.37h-.27l-.1-.37h-.27l-.1-.37h-.27l-.1-.37h-.27l-.1-.37h-.27l-.1-.37h-.27l-.1-.37h-.27l-.1-.37h-.27l-.1-.37h-.27l-.1-.37h-.27l-.1-.37h-.27l-.1-.37h-.27l-.1-.37h-.27l-.1-.37h-.27l-.1-.37h-.27l-.1-.37h-.27l-.1-.37h-.27l-.1-.37h-.27l-.1-.37h-.27l-.1-.37h-.27l-.1-.37h-.27l-.1-.37h-.27l-.1-.37h-.27l-.1-.37h-.27l-.1-.37h-.27l-.1-.37h-.27l-.1-.37h-.27l-.1-.37h-.27l-.1-.37h-.27l-.1-.37h-.27l-.1-.37h-.27l-.1-.37h-.27l-.1-.37h-.27l-.1-.37h-.27l-.1-.37h-70.48l75.72,232.07h.25l.12.37h.25l.12.37h.25l.12.37h.25l.12.37h.25l.12.37h.25l.12.37h.25l.12.37h.25l.12.37h.25l.12.37h.25l.12.37h.25l.12.37h.25l.12.37h.25l.12.37h.25l.12.37h.25l.12.37h.25l.12.37h.25l.12.37h.25l.12.37h.25l.12.37h.25l.12.37h.25l.12.37h.25l.12.37h.25l.12.37h.25l.12.37h.25l.12.37h.25l.12.37h.25l.12.37h.25l.12.37h.25l.12.37h.25l.12.37h.25l.12.37h.25l.12.37h.25l.12.37h.25l.12.37h.25l.12.37h.25l.12.37h.25l.12.37h.25l.12.37h.25l.12.37h.25l.12.37h.25l.12.37h.25l.12.37h.25l.12.37h.25l.12.37h.25l.12.37h.25l.12.37h.25l.12.37h.25l.12.37h.25l.12.37h.25l.12.37h.25l.12.37h.25l.12.37h.25l.12.37h.25l.12.37h.25l.12.37h.25l.12.37h.25l.12.37h.25l.12.37h.25l.12.37h.25l.12.37h.25l.12.37h73.81l76.03-232.07h-.49l.12-.37Z"/>
    <polygon class="cls-10" points="1832.94 414.55 1832.58 414.55 1832.58 414.18 1832.21 414.18 1832.21 413.82 1831.84 413.82 1831.84 413.45 1831.48 413.45 1831.48 413.08 1831.11 413.08 1831.11 412.72 1830.74 412.72 1830.74 412.35 1830.38 412.35 1830.38 411.98 1830.01 411.98 1830.01 411.62 1829.64 411.62 1829.64 411.25 1829.28 411.25 1829.28 410.88 1828.91 410.88 1828.91 410.52 1828.54 410.52 1828.54 410.15 1828.17 410.15 1828.17 409.78 1827.81 409.78 1827.81 409.42 1827.44 409.42 1827.44 409.05 1827.07 409.05 1827.07 408.68 1826.71 408.68 1826.71 408.32 1826.34 408.32 1826.34 407.95 1825.97 407.95 1825.97 407.58 1825.61 407.58 1825.61 407.21 1825.24 407.21 1825.24 406.85 1824.87 406.85 1824.87 406.48 1824.51 406.48 1824.51 406.11 1824.14 406.11 1824.14 405.75 1823.77 405.75 1823.77 405.38 1823.41 405.38 1823.41 405.01 1823.04 405.01 1823.04 404.65 1822.67 404.65 1822.67 404.28 1822.31 404.28 1822.31 403.91 1821.94 403.91 1821.94 403.55 1821.57 403.55 1821.57 403.18 1821.2 403.18 1821.2 402.81 1820.84 402.81 1820.84 402.45 1820.47 402.45 1820.47 402.08 1820.1 402.08 1820.1 401.71 1819.74 401.71 1819.74 401.35 1819.37 401.35 1819.37 400.98 1819 400.98 1819 400.61 1818.64 400.61 1818.64 400.24 1818.27 400.24 1818.27 399.88 1817.9 399.88 1817.9 399.51 1817.54 399.51 1817.54 399.14 1817.17 399.14 1817.17 398.78 1816.8 398.78 1816.8 398.41 1816.44 398.41 1816.44 398.04 1816.07 398.04 1816.07 397.68 1815.7 397.68 1815.7 397.31 1815.34 397.31 1815.34 396.94 1814.97 396.94 1814.97 396.58 1814.6 396.58 1814.6 396.21 1814.23 396.21 1814.23 395.84 1813.87 395.84 1813.87 395.48 1813.5 395.48 1813.5 395.11 1813.13 395.11 1813.13 394.74 1812.77 394.74 1812.77 394.38 1812.4 394.38 1812.4 394.01 1812.03 394.01 1812.03 393.64 1811.67 393.64 1811.67 393.27 1811.3 393.27 1811.3 392.91 1810.93 392.91 1810.93 392.54 1730.93 392.54 1730.93 207.29 1730.56 207.29 1730.56 206.93 1730.19 206.93 1730.19 206.56 1729.83 206.56 1729.83 206.19 1729.46 206.19 1729.46 205.82 1729.09 205.82 1729.09 205.46 1728.73 205.46 1728.73 205.09 1728.36 205.09 1728.36 204.72 1727.99 204.72 1727.99 204.36 1727.62 204.36 1727.62 203.99 1727.26 203.99 1727.26 203.62 1726.89 203.62 1726.89 203.26 1726.52 203.26 1726.52 202.89 1726.16 202.89 1726.16 202.52 1725.79 202.52 1725.79 202.16 1725.42 202.16 1725.42 201.79 1725.06 201.79 1725.06 201.42 1724.69 201.42 1724.69 201.06 1724.32 201.06 1724.32 200.69 1723.96 200.69 1723.96 200.32 1723.59 200.32 1723.59 199.96 1723.22 199.96 1723.22 199.59 1722.86 199.59 1722.86 199.22 1722.49 199.22 1722.49 198.85 1722.12 198.85 1722.12 198.49 1721.76 198.49 1721.76 198.12 1721.39 198.12 1721.39 197.75 1721.02 197.75 1721.02 197.39 1720.65 197.39 1720.65 197.02 1720.29 197.02 1720.29 196.65 1719.92 196.65 1719.92 196.29 1719.55 196.29 1719.55 195.92 1719.19 195.92 1719.19 195.55 1718.82 195.55 1718.82 195.19 1718.45 195.19 1718.45 194.82 1718.09 194.82 1718.09 194.45 1717.72 194.45 1717.72 194.09 1717.35 194.09 1717.35 193.72 1716.99 193.72 1716.99 193.35 1716.62 193.35 1716.62 192.99 1716.25 192.99 1716.25 192.62 1715.89 192.62 1715.89 192.25 1715.52 192.25 1715.52 191.88 1715.15 191.88 1715.15 191.52 1714.79 191.52 1714.79 191.15 1714.42 191.15 1714.42 190.78 1714.05 190.78 1714.05 190.42 1713.68 190.42 1713.68 190.05 1713.32 190.05 1713.32 189.68 1712.95 189.68 1712.95 189.32 1712.58 189.32 1712.58 188.95 1712.22 188.95 1712.22 188.58 1711.85 188.58 1711.85 188.22 1711.48 188.22 1711.48 187.85 1711.12 187.85 1711.12 187.48 1710.75 187.48 1710.75 187.12 1710.38 187.12 1710.38 186.75 1710.02 186.75 1710.02 186.38 1709.65 186.38 1709.65 186.02 1709.28 186.02 1709.28 185.65 1708.92 185.65 1708.92 185.28 1708.55 185.28 1708.55 184.91 1681.56 184.91 1681.56 416.99 1681.93 416.99 1681.93 417.35 1682.3 417.35 1682.3 417.72 1682.66 417.72 1682.66 418.09 1683.03 418.09 1683.03 418.45 1683.4 418.45 1683.4 418.82 1683.76 418.82 1683.76 419.19 1684.13 419.19 1684.13 419.55 1684.5 419.55 1684.5 419.92 1684.86 419.92 1684.86 420.29 1685.23 420.29 1685.23 420.66 1685.6 420.66 1685.6 421.02 1685.96 421.02 1685.96 421.39 1686.33 421.39 1686.33 421.76 1686.7 421.76 1686.7 422.12 1687.06 422.12 1687.06 422.49 1687.43 422.49 1687.43 422.86 1687.8 422.86 1687.8 423.22 1688.17 423.22 1688.17 423.59 1688.53 423.59 1688.53 423.96 1688.9 423.96 1688.9 424.32 1689.27 424.32 1689.27 424.69 1689.63 424.69 1689.63 425.06 1690 425.06 1690 425.42 1690.37 425.42 1690.37 425.79 1690.73 425.79 1690.73 426.16 1691.1 426.16 1691.1 426.52 1691.47 426.52 1691.47 426.89 1691.83 426.89 1691.83 427.26 1692.2 427.26 1692.2 427.63 1692.57 427.63 1692.57 427.99 1692.93 427.99 1692.93 428.36 1693.3 428.36 1693.3 428.73 1693.67 428.73 1693.67 429.09 1694.03 429.09 1694.03 429.46 1694.4 429.46 1694.4 429.83 1694.77 429.83 1694.77 430.19 1695.14 430.19 1695.14 430.56 1695.5 430.56 1695.5 430.93 1695.87 430.93 1695.87 431.29 1696.24 431.29 1696.24 431.66 1696.6 431.66 1696.6 432.03 1696.97 432.03 1696.97 432.39 1697.34 432.39 1697.34 432.76 1697.7 432.76 1697.7 433.13 1698.07 433.13 1698.07 433.49 1698.44 433.49 1698.44 433.86 1698.8 433.86 1698.8 434.23 1699.17 434.23 1699.17 434.59 1699.54 434.59 1699.54 434.96 1699.9 434.96 1699.9 435.33 1700.27 435.33 1700.27 435.7 1700.64 435.7 1700.64 436.06 1701 436.06 1701 436.43 1701.37 436.43 1701.37 436.8 1701.74 436.8 1701.74 437.16 1702.11 437.16 1702.11 437.53 1702.47 437.53 1702.47 437.9 1702.84 437.9 1702.84 438.26 1703.21 438.26 1703.21 438.63 1703.57 438.63 1703.57 439 1703.94 439 1703.94 439.36 1833.31 439.36 1833.31 414.92 1832.94 414.92 1832.94 414.55"/>
  </g>
  <g>
    <path class="cls-11" d="M933.12,258.73c0,25.93-7.65,45.95-22.94,60.08-15.29,14.13-37.01,21.19-65.16,21.19h-17.62v76.99h-62.7v-232.07h80.32c29.31,0,51.32,6.4,66.03,19.21,14.71,12.8,22.06,31.01,22.06,54.61ZM827.4,288.89h11.43c9.42,0,16.9-2.64,22.46-7.94,5.56-5.29,8.33-12.59,8.33-21.91,0-15.66-8.68-23.49-26.03-23.49h-16.19v53.34Z"/>
    <path class="cls-11" d="M1032.8,332.54v84.45h-62.7v-232.07h76.03c63.07,0,94.61,22.86,94.61,68.57,0,26.88-13.12,47.68-39.37,62.38l67.62,101.11h-71.11l-49.21-84.45h-15.87ZM1032.8,285.4h11.75c21.91,0,32.86-9.69,32.86-29.05,0-15.98-10.74-23.97-32.22-23.97h-12.38v53.02Z"/>
    <path class="cls-11" d="M1407.27,300.63c0,39.05-9.58,68.73-28.73,89.05-19.15,20.32-47.2,30.48-84.13,30.48s-64.32-10.21-83.73-30.64c-19.42-20.42-29.13-50.16-29.13-89.21s9.66-68.12,28.97-88.5c19.31-20.37,47.38-30.56,84.21-30.56s64.92,10.11,83.97,30.32c19.05,20.22,28.57,49.9,28.57,89.05ZM1247.58,300.63c0,44.87,15.61,67.3,46.83,67.3,15.87,0,27.64-5.45,35.32-16.35,7.67-10.9,11.51-27.88,11.51-50.95s-3.89-40.29-11.67-51.35c-7.78-11.06-19.39-16.59-34.84-16.59-31.43,0-47.14,22.65-47.14,67.94Z"/>
    <path class="cls-11" d="M1579.49,184.92h70.16l-76.03,232.07h-73.81l-75.72-232.07h70.48l31.59,117.62c6.56,26.14,10.16,44.34,10.8,54.61.74-7.41,2.22-16.67,4.44-27.78,2.22-11.11,4.18-19.84,5.87-26.19l32.22-118.26Z"/>
    <path class="cls-11" d="M1681.56,416.99v-232.07h26.99v207.63h102.38v24.45h-129.37Z"/>
    <path class="cls-11" d="M1919.83,420.16c-25.72,0-46.01-7.83-60.88-23.49-14.87-15.66-22.3-37.41-22.3-65.24s6.9-50.32,20.71-66.83c13.81-16.51,32.36-24.76,55.64-24.76,21.8,0,39.05,7.17,51.75,21.51,12.7,14.34,19.05,33.25,19.05,56.75v16.67h-119.85c.53,20.42,5.69,35.93,15.48,46.51,9.79,10.58,23.57,15.87,41.35,15.87,18.73,0,37.25-3.91,55.56-11.75v23.49c-9.32,4.02-18.12,6.9-26.43,8.65-8.31,1.75-18.33,2.62-30.08,2.62ZM1912.68,261.9c-13.97,0-25.11,4.55-33.41,13.65-8.31,9.1-13.2,21.69-14.68,37.78h90.95c0-16.61-3.71-29.34-11.11-38.18-7.41-8.83-17.99-13.25-31.75-13.25Z"/>
    <path class="cls-11" d="M2147.77,416.99v-112.54c0-14.18-3.23-24.76-9.68-31.75s-16.56-10.48-30.32-10.48c-18.2,0-31.54,4.92-40,14.76-8.47,9.84-12.7,26.09-12.7,48.73v91.27h-26.35v-173.98h21.43l4.29,23.81h1.27c5.4-8.57,12.96-15.21,22.7-19.92,9.73-4.71,20.58-7.06,32.54-7.06,20.95,0,36.72,5.05,47.3,15.16,10.58,10.11,15.88,26.27,15.88,48.5v113.5h-26.35Z"/>
    <path class="cls-11" d="M2340.48,369.52c0,16.19-6.03,28.68-18.1,37.46-12.06,8.79-29,13.17-50.8,13.17-23.07,0-41.06-3.65-53.97-10.95v-24.45c8.36,4.23,17.33,7.57,26.91,10,9.57,2.44,18.81,3.65,27.7,3.65,13.76,0,24.34-2.2,31.75-6.59,7.41-4.39,11.11-11.08,11.11-20.08,0-6.77-2.94-12.57-8.81-17.38-5.87-4.82-17.33-10.5-34.37-17.07-16.19-6.03-27.7-11.29-34.52-15.79-6.83-4.5-11.91-9.6-15.24-15.32-3.34-5.72-5-12.54-5-20.48,0-14.18,5.77-25.37,17.3-33.57,11.53-8.2,27.35-12.3,47.46-12.3,18.73,0,37.04,3.81,54.92,11.43l-9.36,21.43c-17.46-7.2-33.28-10.8-47.46-10.8-12.49,0-21.91,1.96-28.26,5.87-6.35,3.92-9.52,9.31-9.52,16.19,0,4.66,1.19,8.63,3.57,11.91,2.38,3.28,6.22,6.4,11.51,9.36,5.29,2.97,15.45,7.25,30.48,12.86,20.63,7.51,34.58,15.08,41.83,22.7,7.25,7.62,10.87,17.2,10.87,28.73Z"/>
  </g>
</svg>