<?xml version="1.0" encoding="UTF-8"?>
<svg id="Ebene_1" xmlns="http://www.w3.org/2000/svg" viewBox="0 0 708.66 708.66">
  <defs>
    <style>
      .cls-1 {
        fill: #a5f1f4;
      }

      .cls-2 {
        fill: #ce9544;
      }

      .cls-2, .cls-3, .cls-4, .cls-5, .cls-6, .cls-7, .cls-8 {
        stroke-miterlimit: 10;
        stroke-width: 12px;
      }

      .cls-2, .cls-3, .cls-4, .cls-7, .cls-8 {
        stroke: #12222e;
      }

      .cls-9, .cls-8 {
        fill: #49bdc1;
      }

      .cls-10, .cls-6 {
        fill: #303f47;
      }

      .cls-11, .cls-3 {
        fill: #fdf8ed;
      }

      .cls-12, .cls-7 {
        fill: #1c646b;
      }

      .cls-4, .cls-5 {
        fill: none;
      }

      .cls-5, .cls-6 {
        stroke: #303f47;
      }

      .cls-13 {
        fill: #12222e;
      }
    </style>
  </defs>
  <g>
    <g>
      <rect class="cls-10" x="213.35" y="361.8" width="26.57" height="55.44" transform="translate(-209.05 274.34) rotate(-45)"/>
      <circle class="cls-6" cx="373.38" cy="242.78" r="194.24"/>
      <circle class="cls-6" cx="373.38" cy="242.78" r="166.34"/>
      <circle class="cls-6" cx="373.38" cy="242.78" r="34.17"/>
      <circle class="cls-6" cx="373.38" cy="149.14" r="21.58"/>
      <path class="cls-10" d="M240.53,203.33c10.32-64.56,78.69-111.85,142.76-98.76-4.89.41-9.76.8-14.59,1.41-14.25,1.88-28.23,5.49-41.52,10.82-39.42,15.96-69.67,47.52-86.65,86.52h0Z"/>
      <line class="cls-6" x1="373.38" y1="170.72" x2="373.38" y2="208.61"/>
      <circle class="cls-6" cx="439.59" cy="176.56" r="21.58"/>
      <line class="cls-6" x1="424.34" y1="191.82" x2="397.54" y2="218.61"/>
      <line class="cls-6" x1="528.86" y1="242.78" x2="407.55" y2="242.78"/>
      <circle class="cls-6" cx="651.99" cy="242.78" r="21.58"/>
      <line class="cls-6" x1="630.41" y1="242.78" x2="578.37" y2="242.78"/>
      <circle class="cls-6" cx="439.59" cy="308.99" r="21.58"/>
      <line class="cls-6" x1="424.34" y1="293.73" x2="397.54" y2="266.94"/>
      <circle class="cls-6" cx="373.38" cy="336.42" r="21.58"/>
      <line class="cls-6" x1="373.38" y1="314.84" x2="373.38" y2="276.95"/>
      <line class="cls-6" x1="651.59" y1="323.47" x2="454.49" y2="520.57"/>
      <circle class="cls-6" cx="607.02" cy="500.46" r="21.58"/>
      <line class="cls-6" x1="591.76" y1="485.2" x2="564.97" y2="458.41"/>
      <circle class="cls-6" cx="540.81" cy="527.89" r="21.58"/>
      <line class="cls-6" x1="540.81" y1="506.31" x2="540.81" y2="468.42"/>
      <circle class="cls-6" cx="651.99" cy="323.82" r="21.58"/>
      <line class="cls-6" x1="651.99" y1="302.25" x2="651.99" y2="264.36"/>
      <circle class="cls-6" cx="307.17" cy="308.99" r="21.58"/>
      <line class="cls-6" x1="322.43" y1="293.73" x2="349.22" y2="266.94"/>
      <circle class="cls-6" cx="439.59" cy="527.89" r="21.58"/>
      <circle class="cls-6" cx="279.74" cy="242.78" r="21.58"/>
      <line class="cls-6" x1="301.32" y1="242.78" x2="339.21" y2="242.78"/>
      <circle class="cls-6" cx="356.44" cy="527.89" r="21.58"/>
      <line class="cls-6" x1="378.01" y1="527.89" x2="415.9" y2="527.89"/>
      <circle class="cls-6" cx="307.17" cy="176.56" r="21.58"/>
      <line class="cls-6" x1="322.43" y1="191.82" x2="349.22" y2="218.61"/>
      <circle class="cls-6" cx="540.81" cy="434.25" r="34.17"/>
      <rect class="cls-10" x="226.92" y="394.55" width="26.57" height="17.08" transform="translate(-214.67 287.91) rotate(-45)"/>
      <rect class="cls-5" x="213.35" y="361.8" width="26.57" height="55.44" transform="translate(-209.05 274.34) rotate(-45)"/>
      <path class="cls-10" d="M86.1,530.06h0c-15.09-15.09-15.09-39.56,0-54.66l98.23-98.23c3.32-3.32,8.71-3.32,12.03,0l42.63,42.63c3.32,3.32,3.32,8.71,0,12.03l-98.23,98.23c-15.09,15.09-39.56,15.09-54.66,0Z"/>
      <path class="cls-10" d="M92.11,536.07h0c-11.77-11.77-11.77-30.87,0-42.64l105.56-105.56c2.59-2.59,6.79-2.59,9.38,0l33.26,33.26c2.59,2.59,2.59,6.79,0,9.38l-105.56,105.56c-11.77,11.77-30.87,11.77-42.64,0Z"/>
      <polygon class="cls-10" points="86.3 474.29 184.53 376.06 86.3 474.29 86.3 474.29"/>
      <path class="cls-10" d="M122.93,522.94l105.56-105.56c2.59-2.59,2.59-6.79,0-9.38l-31.94-31.94h0l42.63,42.63c3.32,3.32,3.32,8.71,0,12.03l-98.23,98.23c-15.09,15.09-39.56,15.09-54.66,0h0c-1.08-1.08-2.07-2.21-3-3.38,11.82,9.06,28.81,8.19,39.63-2.63Z"/>
      <path class="cls-5" d="M86.1,530.06h0c-15.09-15.09-15.09-39.56,0-54.66l98.23-98.23c3.32-3.32,8.71-3.32,12.03,0l42.63,42.63c3.32,3.32,3.32,8.71,0,12.03l-98.23,98.23c-15.09,15.09-39.56,15.09-54.66,0Z"/>
      <path class="cls-10" d="M293.87,182.18c-4.29-10.75,8.16-23.23,18.92-18.91-4.56,1.91-8.27,3.98-11.61,7.31-3.34,3.33-5.4,7.04-7.31,11.61h0Z"/>
      <path class="cls-10" d="M265.67,247.83c-4.29-10.75,8.16-23.23,18.92-18.91-4.56,1.91-8.27,3.98-11.61,7.31-3.34,3.33-5.4,7.04-7.31,11.61h0Z"/>
      <path class="cls-10" d="M293.87,314.81c-4.29-10.75,8.16-23.23,18.92-18.91-4.56,1.91-8.27,3.98-11.61,7.31-3.34,3.33-5.4,7.04-7.31,11.61h0Z"/>
      <path class="cls-10" d="M359.52,341.03c-4.29-10.75,8.16-23.23,18.92-18.91-4.56,1.91-8.27,3.98-11.61,7.31-3.34,3.33-5.4,7.04-7.31,11.61h0Z"/>
      <path class="cls-10" d="M342.34,533.59c-4.29-10.75,8.16-23.23,18.92-18.91-4.56,1.91-8.27,3.98-11.61,7.31-3.34,3.33-5.4,7.04-7.31,11.61h0Z"/>
      <path class="cls-10" d="M426.5,533.59c-4.29-10.75,8.16-23.23,18.92-18.91-4.56,1.91-8.27,3.98-11.61,7.31-3.34,3.33-5.4,7.04-7.31,11.61h0Z"/>
      <path class="cls-10" d="M526.69,533.59c-4.29-10.75,8.16-23.23,18.92-18.91-4.56,1.91-8.27,3.98-11.61,7.31-3.34,3.33-5.4,7.04-7.31,11.61h0Z"/>
      <path class="cls-10" d="M591.76,506.28c-4.29-10.75,8.16-23.23,18.92-18.91-4.56,1.91-8.27,3.98-11.61,7.31-3.34,3.33-5.4,7.04-7.31,11.61h0Z"/>
      <path class="cls-10" d="M426.5,314.81c-4.29-10.75,8.16-23.23,18.92-18.91-4.56,1.91-8.27,3.98-11.61,7.31-3.34,3.33-5.4,7.04-7.31,11.61h0Z"/>
      <path class="cls-10" d="M638.3,247.83c-4.29-10.75,8.16-23.23,18.92-18.91-4.56,1.91-8.27,3.98-11.61,7.31-3.34,3.33-5.4,7.04-7.31,11.61h0Z"/>
      <path class="cls-10" d="M638.3,328.9c-4.29-10.75,8.16-23.23,18.92-18.91-4.56,1.91-8.27,3.98-11.61,7.31-3.34,3.33-5.4,7.04-7.31,11.61h0Z"/>
      <path class="cls-10" d="M359.52,153.99c-4.29-10.75,8.16-23.23,18.92-18.91-4.56,1.91-8.27,3.98-11.61,7.31-3.34,3.33-5.4,7.04-7.31,11.61h0Z"/>
      <path class="cls-10" d="M347.79,246.83c-4.28-17.23,13.41-34.95,30.64-30.64-4,1.05-7.65,2.36-10.97,4.15-10.33,5.41-16.95,15.17-19.67,26.49h0Z"/>
      <path class="cls-10" d="M514.96,438.34c-4.28-17.23,13.41-34.95,30.64-30.64-4,1.05-7.65,2.36-10.97,4.15-10.33,5.41-16.95,15.17-19.67,26.49h0Z"/>
      <path class="cls-10" d="M426.5,181.26c-4.29-10.75,8.16-23.23,18.92-18.91-4.56,1.91-8.27,3.98-11.61,7.31-3.34,3.33-5.4,7.04-7.31,11.61h0Z"/>
    </g>
    <g>
      <rect class="cls-11" x="193.51" y="341.96" width="26.57" height="55.44" transform="translate(-200.83 254.5) rotate(-45)"/>
      <circle class="cls-3" cx="353.54" cy="222.93" r="194.24"/>
      <circle class="cls-8" cx="353.54" cy="222.93" r="166.34"/>
      <circle class="cls-8" cx="353.54" cy="222.93" r="34.17"/>
      <circle class="cls-8" cx="353.54" cy="129.29" r="21.58"/>
      <path class="cls-11" d="M220.69,183.48c10.32-64.56,78.69-111.85,142.76-98.76-4.89.41-9.76.8-14.59,1.41-14.25,1.88-28.23,5.49-41.52,10.82-39.42,15.96-69.67,47.52-86.65,86.52h0Z"/>
      <line class="cls-8" x1="353.54" y1="150.87" x2="353.54" y2="188.76"/>
      <circle class="cls-8" cx="419.75" cy="156.72" r="21.58"/>
      <line class="cls-8" x1="404.49" y1="171.98" x2="377.7" y2="198.77"/>
      <line class="cls-8" x1="509.02" y1="222.93" x2="387.71" y2="222.93"/>
      <circle class="cls-7" cx="632.15" cy="222.93" r="21.58"/>
      <line class="cls-8" x1="610.57" y1="222.93" x2="558.53" y2="222.93"/>
      <circle class="cls-7" cx="419.75" cy="289.15" r="21.58"/>
      <line class="cls-8" x1="404.49" y1="273.89" x2="377.7" y2="247.1"/>
      <circle class="cls-8" cx="353.54" cy="316.57" r="21.58"/>
      <line class="cls-8" x1="353.54" y1="295" x2="353.54" y2="257.1"/>
      <line class="cls-8" x1="631.75" y1="303.62" x2="434.65" y2="500.73"/>
      <circle class="cls-2" cx="587.18" cy="480.62" r="21.58"/>
      <line class="cls-8" x1="571.92" y1="465.36" x2="545.13" y2="438.57"/>
      <circle class="cls-2" cx="520.97" cy="508.04" r="21.58"/>
      <line class="cls-8" x1="520.97" y1="486.47" x2="520.97" y2="448.58"/>
      <circle class="cls-7" cx="632.15" cy="303.98" r="21.58"/>
      <line class="cls-8" x1="632.15" y1="282.4" x2="632.15" y2="244.51"/>
      <circle class="cls-8" cx="287.33" cy="289.15" r="21.58"/>
      <line class="cls-8" x1="302.58" y1="273.89" x2="329.38" y2="247.1"/>
      <circle class="cls-2" cx="419.75" cy="508.04" r="21.58"/>
      <circle class="cls-2" cx="259.9" cy="222.93" r="21.58"/>
      <line class="cls-8" x1="281.48" y1="222.93" x2="319.37" y2="222.93"/>
      <circle class="cls-2" cx="336.59" cy="508.04" r="21.58"/>
      <line class="cls-8" x1="358.17" y1="508.04" x2="396.06" y2="508.04"/>
      <circle class="cls-8" cx="287.33" cy="156.72" r="21.58"/>
      <line class="cls-8" x1="302.58" y1="171.98" x2="329.38" y2="198.77"/>
      <circle class="cls-2" cx="520.97" cy="414.4" r="34.17"/>
      <rect class="cls-12" x="207.07" y="374.7" width="26.57" height="17.08" transform="translate(-206.45 268.07) rotate(-45)"/>
      <rect class="cls-4" x="193.51" y="341.96" width="26.57" height="55.44" transform="translate(-200.83 254.5) rotate(-45)"/>
      <path class="cls-11" d="M66.25,510.22h0c-15.09-15.09-15.09-39.56,0-54.66l98.23-98.23c3.32-3.32,8.71-3.32,12.03,0l42.63,42.63c3.32,3.32,3.32,8.71,0,12.03l-98.23,98.23c-15.09,15.09-39.56,15.09-54.66,0Z"/>
      <path class="cls-9" d="M72.26,516.22h0c-11.77-11.77-11.77-30.87,0-42.64l105.56-105.56c2.59-2.59,6.79-2.59,9.38,0l33.26,33.26c2.59,2.59,2.59,6.79,0,9.38l-105.56,105.56c-11.77,11.77-30.87,11.77-42.64,0Z"/>
      <g>
        <polygon class="cls-12" points="66.46 454.44 164.69 356.21 66.46 454.45 66.46 454.44"/>
        <path class="cls-12" d="M103.09,503.09l105.56-105.56c2.59-2.59,2.59-6.79,0-9.38l-31.94-31.94h0l42.63,42.63c3.32,3.32,3.32,8.71,0,12.03l-98.23,98.23c-15.09,15.09-39.56,15.09-54.66,0h0c-1.08-1.08-2.07-2.21-3-3.38,11.82,9.06,28.81,8.19,39.63-2.63Z"/>
      </g>
      <path class="cls-4" d="M66.25,510.22h0c-15.09-15.09-15.09-39.56,0-54.66l98.23-98.23c3.32-3.32,8.71-3.32,12.03,0l42.63,42.63c3.32,3.32,3.32,8.71,0,12.03l-98.23,98.23c-15.09,15.09-39.56,15.09-54.66,0Z"/>
      <path class="cls-11" d="M274.03,162.34c-4.29-10.75,8.16-23.23,18.92-18.91-4.56,1.91-8.27,3.98-11.61,7.31-3.34,3.33-5.4,7.04-7.31,11.61h0Z"/>
      <path class="cls-11" d="M245.83,227.99c-4.29-10.75,8.16-23.23,18.92-18.91-4.56,1.91-8.27,3.98-11.61,7.31-3.34,3.33-5.4,7.04-7.31,11.61h0Z"/>
      <path class="cls-11" d="M274.03,294.96c-4.29-10.75,8.16-23.23,18.92-18.91-4.56,1.91-8.27,3.98-11.61,7.31-3.34,3.33-5.4,7.04-7.31,11.61h0Z"/>
      <path class="cls-11" d="M339.68,321.18c-4.29-10.75,8.16-23.23,18.92-18.91-4.56,1.91-8.27,3.98-11.61,7.31-3.34,3.33-5.4,7.04-7.31,11.61h0Z"/>
      <path class="cls-11" d="M322.5,513.75c-4.29-10.75,8.16-23.23,18.92-18.91-4.56,1.91-8.27,3.98-11.61,7.31-3.34,3.33-5.4,7.04-7.31,11.61h0Z"/>
      <path class="cls-11" d="M406.65,513.75c-4.29-10.75,8.16-23.23,18.92-18.91-4.56,1.91-8.27,3.98-11.61,7.31-3.34,3.33-5.4,7.04-7.31,11.61h0Z"/>
      <path class="cls-11" d="M506.85,513.75c-4.29-10.75,8.16-23.23,18.92-18.91-4.56,1.91-8.27,3.98-11.61,7.31-3.34,3.33-5.4,7.04-7.31,11.61h0Z"/>
      <path class="cls-11" d="M571.92,486.44c-4.29-10.75,8.16-23.23,18.92-18.91-4.56,1.91-8.27,3.98-11.61,7.31-3.34,3.33-5.4,7.04-7.31,11.61h0Z"/>
      <path class="cls-1" d="M406.65,294.96c-4.29-10.75,8.16-23.23,18.92-18.91-4.56,1.91-8.27,3.98-11.61,7.31-3.34,3.33-5.4,7.04-7.31,11.61h0Z"/>
      <path class="cls-1" d="M618.45,227.99c-4.29-10.75,8.16-23.23,18.92-18.91-4.56,1.91-8.27,3.98-11.61,7.31-3.34,3.33-5.4,7.04-7.31,11.61h0Z"/>
      <path class="cls-1" d="M618.45,309.06c-4.29-10.75,8.16-23.23,18.92-18.91-4.56,1.91-8.27,3.98-11.61,7.31-3.34,3.33-5.4,7.04-7.31,11.61h0Z"/>
      <path class="cls-11" d="M339.68,134.14c-4.29-10.75,8.16-23.23,18.92-18.91-4.56,1.91-8.27,3.98-11.61,7.31-3.34,3.33-5.4,7.04-7.31,11.61h0Z"/>
      <path class="cls-11" d="M327.95,226.99c-4.28-17.23,13.41-34.95,30.64-30.64-4,1.05-7.65,2.36-10.97,4.15-10.33,5.41-16.95,15.17-19.67,26.49h0Z"/>
      <path class="cls-11" d="M495.12,418.5c-4.28-17.23,13.41-34.95,30.64-30.64-4,1.05-7.65,2.36-10.97,4.15-10.33,5.41-16.95,15.17-19.67,26.49h0Z"/>
      <path class="cls-11" d="M406.65,161.42c-4.29-10.75,8.16-23.23,18.92-18.91-4.56,1.91-8.27,3.98-11.61,7.31-3.34,3.33-5.4,7.04-7.31,11.61h0Z"/>
    </g>
  </g>
  <g>
    <path class="cls-13" d="M120.47,607.66c0,9.85-2.91,17.46-8.72,22.83-5.81,5.37-14.07,8.05-24.76,8.05h-6.7v29.26h-23.83v-88.19h30.52c11.14,0,19.5,2.43,25.1,7.3,5.59,4.87,8.38,11.78,8.38,20.75ZM80.29,619.13h4.34c3.58,0,6.42-1,8.54-3.02,2.11-2.01,3.17-4.79,3.17-8.33,0-5.95-3.3-8.93-9.89-8.93h-6.15v20.27Z"/>
    <path class="cls-13" d="M158.35,635.72v32.09h-23.83v-88.19h28.9c23.97,0,35.95,8.69,35.95,26.06,0,10.22-4.99,18.12-14.96,23.71l25.7,38.43h-27.03l-18.7-32.09h-6.03ZM158.35,617.8h4.46c8.32,0,12.49-3.68,12.49-11.04,0-6.07-4.08-9.11-12.25-9.11h-4.71v20.15Z"/>
    <path class="cls-13" d="M300.66,623.59c0,14.84-3.64,26.12-10.92,33.84-7.28,7.72-17.94,11.58-31.97,11.58s-24.44-3.88-31.82-11.64c-7.38-7.76-11.07-19.06-11.07-33.9s3.67-25.89,11.01-33.63c7.34-7.74,18.01-11.61,32-11.61s24.67,3.84,31.91,11.52c7.24,7.68,10.86,18.96,10.86,33.84ZM239.97,623.59c0,17.05,5.93,25.58,17.8,25.58,6.03,0,10.51-2.07,13.42-6.21,2.92-4.14,4.37-10.6,4.37-19.36s-1.48-15.31-4.43-19.52c-2.96-4.2-7.37-6.3-13.24-6.3-11.94,0-17.92,8.61-17.92,25.82Z"/>
    <path class="cls-13" d="M366.11,579.61h26.66l-28.9,88.19h-28.05l-28.77-88.19h26.78l12,44.7c2.49,9.93,3.86,16.85,4.1,20.75.28-2.81.84-6.33,1.69-10.56.84-4.22,1.59-7.54,2.23-9.95l12.25-44.94Z"/>
    <path class="cls-13" d="M404.9,667.81v-88.19h10.26v78.9h38.91v9.29h-49.17Z"/>
    <path class="cls-13" d="M495.45,669.01c-9.77,0-17.49-2.98-23.13-8.93-5.65-5.95-8.48-14.22-8.48-24.79s2.62-19.12,7.87-25.4c5.25-6.27,12.3-9.41,21.14-9.41,8.29,0,14.84,2.72,19.67,8.17,4.83,5.45,7.24,12.64,7.24,21.57v6.33h-45.54c.2,7.76,2.16,13.65,5.88,17.67,3.72,4.02,8.96,6.03,15.71,6.03,7.12,0,14.16-1.49,21.11-4.46v8.93c-3.54,1.53-6.89,2.62-10.04,3.29-3.16.66-6.97,1-11.43,1ZM492.74,608.87c-5.31,0-9.54,1.73-12.7,5.19-3.16,3.46-5.02,8.24-5.58,14.36h34.57c0-6.31-1.41-11.15-4.22-14.51-2.82-3.36-6.84-5.04-12.06-5.04Z"/>
    <path class="cls-13" d="M582.08,667.81v-42.77c0-5.39-1.23-9.41-3.68-12.06s-6.29-3.98-11.52-3.98c-6.92,0-11.99,1.87-15.2,5.61-3.22,3.74-4.83,9.91-4.83,18.52v34.69h-10.01v-66.12h8.14l1.63,9.05h.48c2.05-3.26,4.93-5.78,8.63-7.57,3.7-1.79,7.82-2.68,12.37-2.68,7.96,0,13.96,1.92,17.98,5.76,4.02,3.84,6.03,9.98,6.03,18.43v43.13h-10.01Z"/>
    <path class="cls-13" d="M655.31,649.77c0,6.15-2.29,10.9-6.88,14.24-4.58,3.34-11.02,5.01-19.3,5.01-8.77,0-15.6-1.39-20.51-4.16v-9.29c3.18,1.61,6.58,2.88,10.23,3.8,3.64.93,7.15,1.39,10.53,1.39,5.23,0,9.25-.83,12.06-2.5,2.82-1.67,4.22-4.21,4.22-7.63,0-2.57-1.12-4.78-3.35-6.61-2.23-1.83-6.59-3.99-13.06-6.49-6.15-2.29-10.53-4.29-13.12-6-2.59-1.71-4.52-3.65-5.79-5.82-1.27-2.17-1.9-4.77-1.9-7.78,0-5.39,2.19-9.64,6.58-12.76,4.38-3.12,10.4-4.67,18.04-4.67,7.12,0,14.08,1.45,20.87,4.34l-3.56,8.14c-6.64-2.73-12.65-4.1-18.04-4.1-4.75,0-8.33.75-10.74,2.23-2.41,1.49-3.62,3.54-3.62,6.15,0,1.77.45,3.28,1.36,4.52.9,1.25,2.36,2.43,4.37,3.56,2.01,1.13,5.87,2.75,11.58,4.89,7.84,2.86,13.14,5.73,15.9,8.63,2.75,2.9,4.13,6.54,4.13,10.92Z"/>
  </g>
</svg>