<?xml version="1.0" encoding="UTF-8"?>
<svg id="Ebene_1" xmlns="http://www.w3.org/2000/svg" viewBox="0 0 2466.14 595.28">
  <defs>
    <style>
      .cls-1 {
        fill: #a5f1f4;
      }

      .cls-2 {
        fill: #ce9544;
      }

      .cls-2, .cls-3, .cls-4, .cls-5, .cls-6, .cls-7, .cls-8 {
        stroke-miterlimit: 10;
      }

      .cls-2, .cls-3, .cls-4, .cls-5, .cls-7, .cls-8 {
        stroke-width: 12px;
      }

      .cls-2, .cls-3, .cls-4, .cls-7, .cls-8 {
        stroke: #12222e;
      }

      .cls-9, .cls-8 {
        fill: #49bdc1;
      }

      .cls-10, .cls-3 {
        fill: #fdf8ed;
      }

      .cls-11, .cls-7 {
        fill: #1c646b;
      }

      .cls-4 {
        fill: none;
      }

      .cls-5, .cls-6 {
        fill: #303f47;
        stroke: #303f47;
      }

      .cls-12 {
        fill: #12222e;
      }
    </style>
  </defs>
  <g>
    <g>
      <rect class="cls-6" x="213.35" y="361.8" width="26.57" height="55.44" transform="translate(-209.05 274.34) rotate(-45)"/>
      <circle class="cls-5" cx="373.38" cy="242.78" r="194.24"/>
      <circle class="cls-5" cx="373.38" cy="242.78" r="166.34"/>
      <circle class="cls-5" cx="373.38" cy="242.78" r="34.17"/>
      <circle class="cls-5" cx="373.38" cy="149.14" r="21.58"/>
      <path class="cls-6" d="M240.53,203.33c10.32-64.56,78.69-111.85,142.76-98.76-4.89.41-9.76.8-14.59,1.41-14.25,1.88-28.23,5.49-41.52,10.82-39.42,15.96-69.67,47.52-86.65,86.52h0Z"/>
      <line class="cls-5" x1="373.38" y1="170.72" x2="373.38" y2="208.61"/>
      <circle class="cls-5" cx="439.59" cy="176.56" r="21.58"/>
      <line class="cls-5" x1="424.34" y1="191.82" x2="397.54" y2="218.61"/>
      <line class="cls-5" x1="528.86" y1="242.78" x2="407.55" y2="242.78"/>
      <circle class="cls-5" cx="639.99" cy="230.78" r="21.58"/>
      <line class="cls-5" x1="618.41" y1="230.78" x2="566.37" y2="230.78"/>
      <circle class="cls-5" cx="439.59" cy="308.99" r="21.58"/>
      <line class="cls-5" x1="424.34" y1="293.73" x2="397.54" y2="266.94"/>
      <circle class="cls-5" cx="373.38" cy="336.42" r="21.58"/>
      <line class="cls-5" x1="373.38" y1="314.84" x2="373.38" y2="276.95"/>
      <line class="cls-5" x1="639.59" y1="311.46" x2="442.49" y2="508.57"/>
      <circle class="cls-5" cx="595.02" cy="488.46" r="21.58"/>
      <line class="cls-5" x1="579.76" y1="473.2" x2="552.97" y2="446.41"/>
      <circle class="cls-5" cx="528.81" cy="515.89" r="21.58"/>
      <line class="cls-5" x1="528.81" y1="494.31" x2="528.81" y2="456.42"/>
      <circle class="cls-5" cx="639.99" cy="311.82" r="21.58"/>
      <line class="cls-5" x1="639.99" y1="290.24" x2="639.99" y2="252.35"/>
      <circle class="cls-5" cx="307.17" cy="308.99" r="21.58"/>
      <line class="cls-5" x1="322.43" y1="293.73" x2="349.22" y2="266.94"/>
      <circle class="cls-5" cx="427.59" cy="515.89" r="21.58"/>
      <circle class="cls-5" cx="279.74" cy="242.78" r="21.58"/>
      <line class="cls-5" x1="301.32" y1="242.78" x2="339.21" y2="242.78"/>
      <circle class="cls-5" cx="344.43" cy="515.89" r="21.58"/>
      <line class="cls-5" x1="366.01" y1="515.89" x2="403.9" y2="515.89"/>
      <circle class="cls-5" cx="307.17" cy="176.56" r="21.58"/>
      <line class="cls-5" x1="322.43" y1="191.82" x2="349.22" y2="218.61"/>
      <circle class="cls-5" cx="528.81" cy="422.25" r="34.17"/>
      <rect class="cls-6" x="226.92" y="394.55" width="26.57" height="17.08" transform="translate(-214.67 287.91) rotate(-45)"/>
      <rect class="cls-5" x="213.35" y="361.8" width="26.57" height="55.44" transform="translate(-209.05 274.34) rotate(-45)"/>
      <path class="cls-6" d="M86.1,530.06h0c-15.09-15.09-15.09-39.56,0-54.66l98.23-98.23c3.32-3.32,8.71-3.32,12.03,0l42.63,42.63c3.32,3.32,3.32,8.71,0,12.03l-98.23,98.23c-15.09,15.09-39.56,15.09-54.66,0Z"/>
      <path class="cls-6" d="M92.11,536.07h0c-11.77-11.77-11.77-30.87,0-42.64l105.56-105.56c2.59-2.59,6.79-2.59,9.38,0l33.26,33.26c2.59,2.59,2.59,6.79,0,9.38l-105.56,105.56c-11.77,11.77-30.87,11.77-42.64,0Z"/>
      <polygon class="cls-6" points="86.3 474.29 184.53 376.06 86.3 474.29 86.3 474.29"/>
      <path class="cls-6" d="M122.93,522.94l105.56-105.56c2.59-2.59,2.59-6.79,0-9.38l-31.94-31.94h0l42.63,42.63c3.32,3.32,3.32,8.71,0,12.03l-98.23,98.23c-15.09,15.09-39.56,15.09-54.66,0h0c-1.08-1.08-2.07-2.21-3-3.38,11.82,9.06,28.81,8.19,39.63-2.63Z"/>
      <path class="cls-5" d="M86.1,530.06h0c-15.09-15.09-15.09-39.56,0-54.66l98.23-98.23c3.32-3.32,8.71-3.32,12.03,0l42.63,42.63c3.32,3.32,3.32,8.71,0,12.03l-98.23,98.23c-15.09,15.09-39.56,15.09-54.66,0Z"/>
      <path class="cls-6" d="M293.87,182.18c-4.29-10.75,8.16-23.23,18.92-18.91-4.56,1.91-8.27,3.98-11.61,7.31-3.34,3.33-5.4,7.04-7.31,11.61h0Z"/>
      <path class="cls-6" d="M265.67,247.83c-4.29-10.75,8.16-23.23,18.92-18.91-4.56,1.91-8.27,3.98-11.61,7.31-3.34,3.33-5.4,7.04-7.31,11.61h0Z"/>
      <path class="cls-6" d="M293.87,314.81c-4.29-10.75,8.16-23.23,18.92-18.91-4.56,1.91-8.27,3.98-11.61,7.31-3.34,3.33-5.4,7.04-7.31,11.61h0Z"/>
      <path class="cls-6" d="M359.52,341.03c-4.29-10.75,8.16-23.23,18.92-18.91-4.56,1.91-8.27,3.98-11.61,7.31-3.34,3.33-5.4,7.04-7.31,11.61h0Z"/>
      <path class="cls-6" d="M330.34,521.59c-4.29-10.75,8.16-23.23,18.92-18.91-4.56,1.91-8.27,3.98-11.61,7.31-3.34,3.33-5.4,7.04-7.31,11.61h0Z"/>
      <path class="cls-6" d="M414.5,521.59c-4.29-10.75,8.16-23.23,18.92-18.91-4.56,1.91-8.27,3.98-11.61,7.31-3.34,3.33-5.4,7.04-7.31,11.61h0Z"/>
      <path class="cls-6" d="M514.69,521.59c-4.29-10.75,8.16-23.23,18.92-18.91-4.56,1.91-8.27,3.98-11.61,7.31-3.34,3.33-5.4,7.04-7.31,11.61h0Z"/>
      <path class="cls-6" d="M579.76,494.28c-4.29-10.75,8.16-23.23,18.92-18.91-4.56,1.91-8.27,3.98-11.61,7.31-3.34,3.33-5.4,7.04-7.31,11.61h0Z"/>
      <path class="cls-6" d="M426.5,314.81c-4.29-10.75,8.16-23.23,18.92-18.91-4.56,1.91-8.27,3.98-11.61,7.31-3.34,3.33-5.4,7.04-7.31,11.61h0Z"/>
      <path class="cls-6" d="M626.3,235.83c-4.29-10.75,8.16-23.23,18.92-18.91-4.56,1.91-8.27,3.98-11.61,7.31-3.34,3.33-5.4,7.04-7.31,11.61h0Z"/>
      <path class="cls-6" d="M626.3,316.9c-4.29-10.75,8.16-23.23,18.92-18.91-4.56,1.91-8.27,3.98-11.61,7.31-3.34,3.33-5.4,7.04-7.31,11.61h0Z"/>
      <path class="cls-6" d="M359.52,153.99c-4.29-10.75,8.16-23.23,18.92-18.91-4.56,1.91-8.27,3.98-11.61,7.31-3.34,3.33-5.4,7.04-7.31,11.61h0Z"/>
      <path class="cls-6" d="M347.79,246.83c-4.28-17.23,13.41-34.95,30.64-30.64-4,1.05-7.65,2.36-10.97,4.15-10.33,5.41-16.95,15.17-19.67,26.49h0Z"/>
      <path class="cls-6" d="M502.96,426.34c-4.28-17.23,13.41-34.95,30.64-30.64-4,1.05-7.65,2.36-10.97,4.15-10.33,5.41-16.95,15.17-19.67,26.49h0Z"/>
      <path class="cls-6" d="M426.5,181.26c-4.29-10.75,8.16-23.23,18.92-18.91-4.56,1.91-8.27,3.98-11.61,7.31-3.34,3.33-5.4,7.04-7.31,11.61h0Z"/>
    </g>
    <g>
      <rect class="cls-10" x="193.51" y="341.96" width="26.57" height="55.44" transform="translate(-200.83 254.5) rotate(-45)"/>
      <circle class="cls-3" cx="353.54" cy="222.93" r="194.24"/>
      <circle class="cls-8" cx="353.54" cy="222.93" r="166.34"/>
      <circle class="cls-8" cx="353.54" cy="222.93" r="34.17"/>
      <circle class="cls-8" cx="353.54" cy="129.29" r="21.58"/>
      <path class="cls-10" d="M220.69,183.48c10.32-64.56,78.69-111.85,142.76-98.76-4.89.41-9.76.8-14.59,1.41-14.25,1.88-28.23,5.49-41.52,10.82-39.42,15.96-69.67,47.52-86.65,86.52h0Z"/>
      <line class="cls-8" x1="353.54" y1="150.87" x2="353.54" y2="188.76"/>
      <circle class="cls-8" cx="419.75" cy="156.72" r="21.58"/>
      <line class="cls-8" x1="404.49" y1="171.98" x2="377.7" y2="198.77"/>
      <line class="cls-8" x1="509.02" y1="222.93" x2="387.71" y2="222.93"/>
      <circle class="cls-7" cx="632.15" cy="222.93" r="21.58"/>
      <line class="cls-8" x1="610.57" y1="222.93" x2="558.53" y2="222.93"/>
      <circle class="cls-7" cx="419.75" cy="289.15" r="21.58"/>
      <line class="cls-8" x1="404.49" y1="273.89" x2="377.7" y2="247.1"/>
      <circle class="cls-8" cx="353.54" cy="316.57" r="21.58"/>
      <line class="cls-8" x1="353.54" y1="295" x2="353.54" y2="257.1"/>
      <line class="cls-8" x1="631.75" y1="303.62" x2="434.65" y2="500.73"/>
      <circle class="cls-2" cx="587.18" cy="480.62" r="21.58"/>
      <line class="cls-8" x1="571.92" y1="465.36" x2="545.13" y2="438.57"/>
      <circle class="cls-2" cx="520.97" cy="508.04" r="21.58"/>
      <line class="cls-8" x1="520.97" y1="486.47" x2="520.97" y2="448.58"/>
      <circle class="cls-7" cx="632.15" cy="303.98" r="21.58"/>
      <line class="cls-8" x1="632.15" y1="282.4" x2="632.15" y2="244.51"/>
      <circle class="cls-8" cx="287.33" cy="289.15" r="21.58"/>
      <line class="cls-8" x1="302.58" y1="273.89" x2="329.38" y2="247.1"/>
      <circle class="cls-2" cx="419.75" cy="508.04" r="21.58"/>
      <circle class="cls-2" cx="259.9" cy="222.93" r="21.58"/>
      <line class="cls-8" x1="281.48" y1="222.93" x2="319.37" y2="222.93"/>
      <circle class="cls-2" cx="336.59" cy="508.04" r="21.58"/>
      <line class="cls-8" x1="358.17" y1="508.04" x2="396.06" y2="508.04"/>
      <circle class="cls-8" cx="287.33" cy="156.72" r="21.58"/>
      <line class="cls-8" x1="302.58" y1="171.98" x2="329.38" y2="198.77"/>
      <circle class="cls-2" cx="520.97" cy="414.4" r="34.17"/>
      <rect class="cls-11" x="207.07" y="374.7" width="26.57" height="17.08" transform="translate(-206.45 268.07) rotate(-45)"/>
      <rect class="cls-4" x="193.51" y="341.96" width="26.57" height="55.44" transform="translate(-200.83 254.5) rotate(-45)"/>
      <path class="cls-10" d="M66.25,510.22h0c-15.09-15.09-15.09-39.56,0-54.66l98.23-98.23c3.32-3.32,8.71-3.32,12.03,0l42.63,42.63c3.32,3.32,3.32,8.71,0,12.03l-98.23,98.23c-15.09,15.09-39.56,15.09-54.66,0Z"/>
      <path class="cls-9" d="M72.26,516.22h0c-11.77-11.77-11.77-30.87,0-42.64l105.56-105.56c2.59-2.59,6.79-2.59,9.38,0l33.26,33.26c2.59,2.59,2.59,6.79,0,9.38l-105.56,105.56c-11.77,11.77-30.87,11.77-42.64,0Z"/>
      <g>
        <polygon class="cls-11" points="66.46 454.44 164.69 356.21 66.46 454.45 66.46 454.44"/>
        <path class="cls-11" d="M103.09,503.09l105.56-105.56c2.59-2.59,2.59-6.79,0-9.38l-31.94-31.94h0l42.63,42.63c3.32,3.32,3.32,8.71,0,12.03l-98.23,98.23c-15.09,15.09-39.56,15.09-54.66,0h0c-1.08-1.08-2.07-2.21-3-3.38,11.82,9.06,28.81,8.19,39.63-2.63Z"/>
      </g>
      <path class="cls-4" d="M66.25,510.22h0c-15.09-15.09-15.09-39.56,0-54.66l98.23-98.23c3.32-3.32,8.71-3.32,12.03,0l42.63,42.63c3.32,3.32,3.32,8.71,0,12.03l-98.23,98.23c-15.09,15.09-39.56,15.09-54.66,0Z"/>
      <path class="cls-10" d="M274.03,162.34c-4.29-10.75,8.16-23.23,18.92-18.91-4.56,1.91-8.27,3.98-11.61,7.31-3.34,3.33-5.4,7.04-7.31,11.61h0Z"/>
      <path class="cls-10" d="M245.83,227.99c-4.29-10.75,8.16-23.23,18.92-18.91-4.56,1.91-8.27,3.98-11.61,7.31-3.34,3.33-5.4,7.04-7.31,11.61h0Z"/>
      <path class="cls-10" d="M274.03,294.96c-4.29-10.75,8.16-23.23,18.92-18.91-4.56,1.91-8.27,3.98-11.61,7.31-3.34,3.33-5.4,7.04-7.31,11.61h0Z"/>
      <path class="cls-10" d="M339.68,321.18c-4.29-10.75,8.16-23.23,18.92-18.91-4.56,1.91-8.27,3.98-11.61,7.31-3.34,3.33-5.4,7.04-7.31,11.61h0Z"/>
      <path class="cls-10" d="M322.5,513.75c-4.29-10.75,8.16-23.23,18.92-18.91-4.56,1.91-8.27,3.98-11.61,7.31-3.34,3.33-5.4,7.04-7.31,11.61h0Z"/>
      <path class="cls-10" d="M406.65,513.75c-4.29-10.75,8.16-23.23,18.92-18.91-4.56,1.91-8.27,3.98-11.61,7.31-3.34,3.33-5.4,7.04-7.31,11.61h0Z"/>
      <path class="cls-10" d="M506.85,513.75c-4.29-10.75,8.16-23.23,18.92-18.91-4.56,1.91-8.27,3.98-11.61,7.31-3.34,3.33-5.4,7.04-7.31,11.61h0Z"/>
      <path class="cls-10" d="M571.92,486.44c-4.29-10.75,8.16-23.23,18.92-18.91-4.56,1.91-8.27,3.98-11.61,7.31-3.34,3.33-5.4,7.04-7.31,11.61h0Z"/>
      <path class="cls-1" d="M406.65,294.96c-4.29-10.75,8.16-23.23,18.92-18.91-4.56,1.91-8.27,3.98-11.61,7.31-3.34,3.33-5.4,7.04-7.31,11.61h0Z"/>
      <path class="cls-1" d="M618.45,227.99c-4.29-10.75,8.16-23.23,18.92-18.91-4.56,1.91-8.27,3.98-11.61,7.31-3.34,3.33-5.4,7.04-7.31,11.61h0Z"/>
      <path class="cls-1" d="M618.45,309.06c-4.29-10.75,8.16-23.23,18.92-18.91-4.56,1.91-8.27,3.98-11.61,7.31-3.34,3.33-5.4,7.04-7.31,11.61h0Z"/>
      <path class="cls-10" d="M339.68,134.14c-4.29-10.75,8.16-23.23,18.92-18.91-4.56,1.91-8.27,3.98-11.61,7.31-3.34,3.33-5.4,7.04-7.31,11.61h0Z"/>
      <path class="cls-10" d="M327.95,226.99c-4.28-17.23,13.41-34.95,30.64-30.64-4,1.05-7.65,2.36-10.97,4.15-10.33,5.41-16.95,15.17-19.67,26.49h0Z"/>
      <path class="cls-10" d="M495.12,418.5c-4.28-17.23,13.41-34.95,30.64-30.64-4,1.05-7.65,2.36-10.97,4.15-10.33,5.41-16.95,15.17-19.67,26.49h0Z"/>
      <path class="cls-10" d="M406.65,161.42c-4.29-10.75,8.16-23.23,18.92-18.91-4.56,1.91-8.27,3.98-11.61,7.31-3.34,3.33-5.4,7.04-7.31,11.61h0Z"/>
    </g>
  </g>
  <g>
    <path class="cls-12" d="M933.12,258.73c0,25.93-7.65,45.95-22.94,60.08-15.29,14.13-37.01,21.19-65.16,21.19h-17.62v76.99h-62.7v-232.07h80.32c29.31,0,51.32,6.4,66.03,19.21,14.71,12.8,22.06,31.01,22.06,54.61ZM827.4,288.89h11.43c9.42,0,16.9-2.64,22.46-7.94,5.56-5.29,8.33-12.59,8.33-21.91,0-15.66-8.68-23.49-26.03-23.49h-16.19v53.34Z"/>
    <path class="cls-12" d="M1032.8,332.54v84.45h-62.7v-232.07h76.03c63.07,0,94.61,22.86,94.61,68.57,0,26.88-13.12,47.68-39.37,62.38l67.62,101.11h-71.11l-49.21-84.45h-15.87ZM1032.8,285.4h11.75c21.91,0,32.86-9.69,32.86-29.05,0-15.98-10.74-23.97-32.22-23.97h-12.38v53.02Z"/>
    <path class="cls-12" d="M1407.27,300.63c0,39.05-9.58,68.73-28.73,89.05-19.15,20.32-47.2,30.48-84.13,30.48s-64.32-10.21-83.73-30.64c-19.42-20.42-29.13-50.16-29.13-89.21s9.66-68.12,28.97-88.5c19.31-20.37,47.38-30.56,84.21-30.56s64.92,10.11,83.97,30.32c19.05,20.22,28.57,49.9,28.57,89.05ZM1247.58,300.63c0,44.87,15.61,67.3,46.83,67.3,15.87,0,27.64-5.45,35.32-16.35,7.67-10.9,11.51-27.88,11.51-50.95s-3.89-40.29-11.67-51.35c-7.78-11.06-19.39-16.59-34.84-16.59-31.43,0-47.14,22.65-47.14,67.94Z"/>
    <path class="cls-12" d="M1579.49,184.92h70.16l-76.03,232.07h-73.81l-75.72-232.07h70.48l31.59,117.62c6.56,26.14,10.16,44.34,10.8,54.61.74-7.41,2.22-16.67,4.44-27.78,2.22-11.11,4.18-19.84,5.87-26.19l32.22-118.26Z"/>
    <path class="cls-12" d="M1681.56,416.99v-232.07h26.99v207.63h102.38v24.45h-129.37Z"/>
    <path class="cls-12" d="M1919.83,420.16c-25.72,0-46.01-7.83-60.88-23.49-14.87-15.66-22.3-37.41-22.3-65.24s6.9-50.32,20.71-66.83c13.81-16.51,32.36-24.76,55.64-24.76,21.8,0,39.05,7.17,51.75,21.51,12.7,14.34,19.05,33.25,19.05,56.75v16.67h-119.85c.53,20.42,5.69,35.93,15.48,46.51,9.79,10.58,23.57,15.87,41.35,15.87,18.73,0,37.25-3.91,55.56-11.75v23.49c-9.32,4.02-18.12,6.9-26.43,8.65-8.31,1.75-18.33,2.62-30.08,2.62ZM1912.68,261.9c-13.97,0-25.11,4.55-33.41,13.65-8.31,9.1-13.2,21.69-14.68,37.78h90.95c0-16.61-3.71-29.34-11.11-38.18-7.41-8.83-17.99-13.25-31.75-13.25Z"/>
    <path class="cls-12" d="M2147.77,416.99v-112.54c0-14.18-3.23-24.76-9.68-31.75s-16.56-10.48-30.32-10.48c-18.2,0-31.54,4.92-40,14.76-8.47,9.84-12.7,26.09-12.7,48.73v91.27h-26.35v-173.98h21.43l4.29,23.81h1.27c5.4-8.57,12.96-15.21,22.7-19.92,9.73-4.71,20.58-7.06,32.54-7.06,20.95,0,36.72,5.05,47.3,15.16,10.58,10.11,15.88,26.27,15.88,48.5v113.5h-26.35Z"/>
    <path class="cls-12" d="M2340.48,369.52c0,16.19-6.03,28.68-18.1,37.46-12.06,8.79-29,13.17-50.8,13.17-23.07,0-41.06-3.65-53.97-10.95v-24.45c8.36,4.23,17.33,7.57,26.91,10,9.57,2.44,18.81,3.65,27.7,3.65,13.76,0,24.34-2.2,31.75-6.59,7.41-4.39,11.11-11.08,11.11-20.08,0-6.77-2.94-12.57-8.81-17.38-5.87-4.82-17.33-10.5-34.37-17.07-16.19-6.03-27.7-11.29-34.52-15.79-6.83-4.5-11.91-9.6-15.24-15.32-3.34-5.72-5-12.54-5-20.48,0-14.18,5.77-25.37,17.3-33.57,11.53-8.2,27.35-12.3,47.46-12.3,18.73,0,37.04,3.81,54.92,11.43l-9.36,21.43c-17.46-7.2-33.28-10.8-47.46-10.8-12.49,0-21.91,1.96-28.26,5.87-6.35,3.92-9.52,9.31-9.52,16.19,0,4.66,1.19,8.63,3.57,11.91,2.38,3.28,6.22,6.4,11.51,9.36,5.29,2.97,15.45,7.25,30.48,12.86,20.63,7.51,34.58,15.08,41.83,22.7,7.25,7.62,10.87,17.2,10.87,28.73Z"/>
  </g>
</svg>